<?xml version="1.0" encoding="UTF-8"?>
<svg id="_图层_2" data-name="图层 2" xmlns="http://www.w3.org/2000/svg" xmlns:xlink="http://www.w3.org/1999/xlink" viewBox="0 0 400 250">
  <defs>
    <style>
      .cls-1 {
        fill: none;
      }

      .cls-1, .cls-2 {
        stroke-width: 0px;
      }

      .cls-2 {
        fill: #333;
      }

      .cls-3 {
        clip-path: url(#clippath);
      }
    </style>
    <clipPath id="clippath">
      <rect class="cls-1" width="400" height="250"/>
    </clipPath>
  </defs>
  <g id="_图层_1-2" data-name="图层 1">
    <g class="cls-3">
      <g>
        <path class="cls-2" d="m291.59,142.12c-.18-.25,0-.31.13-.19.25-.12-.05-.38.26-.5-.31-.13-.18-.19-.12-.31-.06-.13.19-.06.13-.25-.13-.25.32-.63.51-.87,0-.13-.18-.44-.05-.57-.06-.06.31,0,.44-.12l-.12-.13c.07-.38.13-.56.33-.93,0-.13.19-.37.25-.5-.06-.06-.12-.19-.12-.25.06-.25.38-.56.51-.93,0-.25-.18-.38.07-.56-.06-.13.06,0,.06-.19-.12-.32.01-.75-.3-1.2-.44-.32-.94.17-1.32.29-.25.12-.32.44-.64.62-.13.06-.31-.07-.38.12-.19.06-.19.38-.25.44-.13.12-.63.05-.76.18-.13.12.05.5-.33.68-.44.18-.69.24-.89.55,0,.06,0,.37-.07.44-.06,0-.31,0-.32.12-.06,0,0,.31-.07.31-.32.25-.57.31-.83.62-.32.31-.39.87-.77,1.18-.13.31-.39.68-.77.8.18.5-.39.56-.33.93-.89.74-1.09,1.74-1.67,2.67-.32.18-.51.5-.64.68-.07.19,0,.5,0,.63-.07.25-.58.87-.71,1.37-.32.56-.4,1.25-.84,1.68-.32.12.06.38-.07.63,0,.13-.38.44-.58.68,0,.13.25.32.12.51,0,0-.19-.06-.13,0,0,.19.12.38,0,.5-.06.12-.31.18-.38.37,0,.19,0,.5-.02.75-.06.19-.19.25-.32.44-.06.06.18.32.18.38-.06.06-.39.62-.26.88.06.13-.19.44-.2.62-.06.12-.25.37-.2.56.06.25-.13.44-.25.5.18.51.17.88.04,1.38-.06.18-.13.06-.13.25.12.25-.13.5-.07.75.06.06.05.44-.07.63,0,.18.12.56.11,1.13-.07.31-.13.37-.2.63.06.31.18.63.11.94,0,.25-.19.38-.13.63-.08.75.6,1.58.4,2.52.82-.12.87.57,1.19.33.06-.12.25-.06.32-.12.13-.31.13-.56.76-.8.25,0-.06-.38.07-.44,0-.13.25,0,.38-.12.19-.12.2-.37.32-.43.06-.12.13-.12.32-.25.07-.18.25-.25.44-.31.19-.12.25-.37.44-.5,0-.13.07-.25.07-.25.32-.25.44-.5.83-.74.32-.12.44-.18.44-.31.19-.18.38-.37.44-.5.25-.18.19-.37.26-.44.38-.5.71-.93,1.27-1.3.06-.13-.06-.13.13-.25.32-.18.37-.25.63-.62.19-.25.13-.31.83-.49.44-.18.28-1.88.72-2.19.82-.17,1.7-.41,2.64-.65.12.25.44,0,.63,0,.19,0,.31.32.43.32.25.07.69-.05,1,.08.5-.12.69.2,1.06.21.44-.18.49.44.87.33-.07.5.24,1.13-.02,1.56.37.51-.26.44-.64.56.37.44-.2.68-.39,1.12-.13.19-.14.69-.39,1.06-.19.19-.56.18-.75.36-.13.06,0,.25-.2.5-.32.12-.57.12-.7.3-.19.13-.07.57-.32.69-.13.06-.57.18-.75.3-.32.18-.33.93-1.14.92-.38.44-.57.62-.89,1.05-.13,0,.06.13-.13.12-.06.06-.19.19-.26.31-.32.18-.57.18-.7.43-.19,0-.06.31-.13.31-.13.12-.25,0-.38.12-.06.06,0,.37-.06.44-.32.18-.44.31-.83.49-.06.12-.06.19-.06.25-.13.06-.25.06-.5.12-.07.19-.07.37-.2.63-.63.05-.51.55-1.13.48-.32.05-.26.56-.45.74-.06.13-.44.18-.32.5-.87-.08-1.14.67-1.64.98-.19.12-.5,0-.76.18,0,0,.06.19-.06.19-.19.06-.88.17-1.32.17-.06,0-.12-.25-.31-.19-.06,0-.38.18-.5.12l-.06-.13c-.06-.06-.32.06-.32.06-.06,0-.06-.13-.06-.13-.12-.06-.31.12-.37.06,0,0,0-.25-.06-.19-.06,0-.38.18-.38.05-.06,0,0-.12-.06-.18-.06.06-.38.18-.5.12-.25-.19-1.38.1-1.82-.15-.25-.06-.37-.45-.81-.33-.44.12-.37-.44-.93-.77-.37-.25-.63,0-.75-.33,0-.5-.24-1.07-.11-1.38-.93-.77-1.04-1.58-1.21-2.71,0-.44-.11-.88.02-1.32-.06-.06-.25-.32-.12-.31.13-.19.38-.31.19-.44,0,0-.49-.63-.29-.94.06,0,.19,0,.19-.06,0-.25-.12-.38-.11-.75.13-.56.14-1,.08-1.57,0-.06-.18-.32-.12-.32.13-.31.38-.31.33-.87,0-.06-.18-.32-.18-.37.06-.06.19,0,.19-.06.06-.06-.12-.26-.06-.32-.06-.06.13-.06.13-.06,0,0-.18-.32-.12-.38,0,0,.19,0,.25-.06,0-.25-.18-.38-.18-.75,0-.12.25.06.07-.25,0-.19.32-.25.44-.49,0-.25-.12-.38-.18-.69,0-.13.32-.12.32-.25.06-.12-.19-.32-.12-.32,0-.06.19-.06.25-.06,0-.31-.18-.5-.12-.75,0-.32.32-.44.39-.75.07-.31,0-.56.07-.82.06-.19.32-.43.32-.62.06-.06-.06-.38-.06-.38-.06-.06.32-.18.38-.31.13-.18,0-.56,0-.75.06-.19.44-.37.51-.55-.06-.13-.18-.25-.12-.38.06-.12.51-.31.32-.62-.05-.38.78-1.37,1.03-1.93,0-.25.19-.06.13-.31-.12-.25.13-.44.33-.69.13-.19.13-.44.39-.62,0-.06,0-.38.06-.44.07,0,.25,0,.32-.06.32-.37.33-.94.9-1.24.13-.25,0-.69.2-1,.06-.06.31-.06.38-.06,0-.19,0-.63.07-.82.19-.25.32-.31.51-.56.13-.12.07-.25.19-.37.19-.37.64-.56.76-.8.32-.25.33-.75.58-1,.06,0,.25,0,.32-.05.32-.12-.05-.5.39-.68.51-.68,1.4-1.11,1.6-1.92.57-.05.57-.43,1.32-.48.44,0-.05-.63.26-.69,0,0,.57-.31.64-.37-.06-.06-.19-.32-.12-.38.25-.12.75-.05.82-.18.13,0-.06-.18-.06-.18.25-.12.44-.18.63-.31.57-.3.95-.74,1.27-.92.06,0,2.58-.34,2.64-.65.13-.12.57-.31,1.26-.29-.06.06.06.19.06.19.5.13,1.12.33,1.68.72.5-.05,1.06-.11,1.44.02.25.13.44.2.69.33.31.13.31.19.68.76.43.57.86.83.97,1.9-.06.06.05.32.12.38-.06.06-.25,0-.19.06-.06.12.18.32.12.31-.13.19-.01.57-.08,1.01.06.13-.13,0-.07.25,0,.18-.26.5-.39.81,0,.19-.06.38-.19.44-.13.25.05.44-.01.63-.13.31-.58.74-.77,1.12-.32.5-.39.81-.71,1.18-.14.44-.33.87-.52,1.12-.06.12-.38.05-.32.12-.13,0-.06.12,0,.19-.13.06-.39.56-.7.68-1.01.48-1.76.04-2.45.03-.06-.19-.11-.51-.37-.51Zm-9.98.73c0,.19-.14.75-.07.82.06.06.52-1.06.07-.82Z"/>
        <path class="cls-2" d="m313.27,154.05c-.5-.07-.32.62-1.13.36-.87-.14-1.11-1.09-1.86-1.6-.39.49-.33,1.19-.59,1.81,0,.06-.13,0-.25.18,0,.19-.25.19-.25.37-.19.31-.07.63-.2.94,0,.06-.13,0-.19.19,0,.38,0,.75-.21,1.19-.13.13-.25,0-.19.19,0,.25-.32.44-.26.75-.06.25-.32.25-.44.44-.06.06.12.25.06.31,0,0-.13,0-.19,0-.07.44-.08.94-.26,1.37-.07.13-.13.13-.19.19-.19.31-.14.69-.27,1.18-.06.06-.32.25-.38.31-.13.37-.14.81-.21,1.25-.06.12-.38.24-.44.31,0,.25.12.44.05.56-.06.13-.25.19-.26.44-.25.37-.27,1.13-.46,1.75,0,.06-.38.24-.38.37-.06.13.06.25.06.38-.06.19-.39.68-.52,1.12-.13.19,0,.38-.2.37.06.51.11.94.11,1.39-.76.74-.78,2.18-1.98,2.48-.06-.19-.5-.13-.5-.38-.75.05.07-.32-.24-.82-.25.06-.13.32-.14.63-.19-.07-.5-.07-.56-.26-.06-.06-.24-.38-.24-.38-.63-.2-1.51.23-1-.58-.44,0-.82,0-1.25-.02-.05-1.01.03-2.01.23-2.88,0-.06.25,0,.25-.18-.05-.51-.05-.95.21-1.32.13-.18.13-.31.14-.68.06-.13.12-.06.19-.13.07-.5.08-.88.21-1.38.06-.06.38-.24.44-.3-.06-.19-.12-.32-.05-.44,0-.13.13-.06.19-.12.26-.75.28-1.69.92-2.19-.18-.69.32-.75.14-1.56.19-.06.19-.31.51-.37-.18-.69.01-1.07.27-1.5,0-.13.19,0,.19-.18-.06-.06-.06-.13-.06-.19.06-.18.19-.18.19-.18.14-.5.08-1.13.22-1.57,0-.13.19,0,.19-.19,0-.06.13-.25.19-.37,0-.19,0-.51.07-.82,0-.06.38-.06.38-.12.13-.31-.05-.75.15-1.19,0-.25.19-.37.32-.56.07-.25-.05-.5.07-.75.06-.13.19,0,.19-.18,0-.19.14-.56.39-.81,0-.19.07-.56.2-1,.06-.06.19.06.19-.12-.05-.31.13-.25.2-.44.13-.31.2-.56.27-.93.07-.38.07-.69.33-.94,0-.13.13-.06.13-.19,0-.19-.05-.31-.05-.44.06-.13.38-.25.44-.31.06-.25.07-.38.2-.56.07-.44.2-.88.39-1.25.07-.18.07-.31.2-.56.07-.31.26-.56.45-1.13,0-.06.13,0,.19-.12,0-.44.07-.44.26-.81.26-.5.33-1.19.65-1.75.13-.18.19-.25.38-.37l.32-.37c.13-.19-.18-.13-.25-.19,0,0,.07-.69.14-.81.06-.13.38-.12.38-.44,0-.13-.06-.38-.05-.56,0-.13.25-.25.32-.31.13-.06-.12-.38-.05-.44,0,0,.25.07.25,0,.19-.31.39-.81.39-1.12.13-.31.13-.5.2-.75.06-.12.38-.31.38-.43,0-.06-.06-.32-.06-.32.13-.13.39-.55.52-1.06,0-.06.12,0,.13-.19.07-.56.27-1.13.9-1.49-.24-.63.4-1.31.34-1.75,0-.06.13-.31.19-.37.06-.12.07-.37.13-.56.06-.12.38-.12.38-.18.26-.37.2-.94.52-1.37.25-.24-.12-.44.14-.93,0-.13.25-.18.32-.44.06-.13,0-.32.13-.5.07-.19.32-.31.32-.37.19-.37.07-.75.33-1.19.07-.18.26-.31.32-.37.13-.19,0-.44.13-.63.06-.06.44-.24.38-.3.06-.13,0-.32,0-.44.06-.13.19-.38.26-.81.06-.13.06-.32.26-.56,0-.13.19-.25.25-.31.26-.56.59-1.37,1.4-1.49.87.64,1.55,1.4,2.29,2.11.05.82-.15,1.56-.34,2.31,0,.06-.13,0-.19.19,0,.06.06.25.06.38,0,.13-.38.25-.38.37-.07.31.05.88-.08,1.19,0,.13-.32.25-.26.37-.06.06,0,.19,0,.37,0,.19-.32.37-.45.75.06.06.12.31.06.37,0,0-.12-.06-.19,0-.07.44-.14.82-.27,1.19-.06.12-.07.44-.14.56,0,.06-.31.12-.32.18-.19.25-.14.69-.14.94-.14.5-.08.88-.34,1.18.06.06,0,.57-.07.63-.19.06-.13.12-.19.31l-.14.56c-.13.12-.25.31-.32.68-.12.06,0,.31,0,.31-.12,0-.25,0-.25,0-.07.5.05.82-.08,1.19,0,.06-.19.19-.32.31-.13.31-.14.81-.27,1.37,0,.13-.32.37-.32.44-.07.13.05.38,0,.5,0,.19-.19,0-.13.25,0,.19-.32.19-.38.31-.06.19.17.7.11.76-.32.37-.2.81-.46,1.43-.06.06-.44.31-.44.37-.07.31-.07.5-.07.75,0,.06-.13.06-.19.18,0,.13.06.25.05.44,0,.06-.38.31-.38.37-.07.19.12.57.05.75,0,.13-.25.19-.32.44-.06.19,0,.31-.2.5,0,.06-.12,0-.12.25-.06.06.05.25.05.32-.06.06-.31.12-.38.18-.2.56.1,1.51-.41,1.94.44.07.83-.99.57-.12,0,.13.25.07.37,0,.13-.13-.05-.5.07-.63.32-.37.7-.43.71-.81.5.14.57-.24,1.01-.36.25-.06.13-.44.32-.5.19-.18.44-.18.57-.24.06-.06-.06-.19.19-.18.44,0,.89-.62,1.2-.93.13-.06.38-.31.38-.37.06-.06.38.07.38,0,.25-.25.38-.37.76-.55,0-.13.07-.44.19-.44.25-.12.38-.12.69-.43.06,0,.25.07.32,0,.13-.12.39-.5.58-.74.06,0,.31.07.38,0,.25-.19.38-.25.69-.5.13-.12,0-.19.25-.25.25,0,.32-.31.82-.3.32-.43.57-.56.95-.8.19-.06,0-.25.25-.25.06,0,.13.13.19,0,.07-.13.32-.37.51-.49.13-.06.25-.13.32-.25,0,0,.5-.12.57-.18.12-.12.13-.19.32-.31.32-.18.57-.3.82-.43.13,0,.13-.25.13-.37.06-.06.37.13.38,0,0-.06.32-.43.76-.43.25,0,.19-.18.32-.31.13-.19.32-.25.32-.43.94.08,0,.44-.14.63-.19.31-.33.69-.45.93-.31.05.25.38-.13.44.18.44.51-.55.89-.55.07-.63.45-.81.77-1.24.31-.06.32-.37.82-.3-.05-.44.26-.44.32-.62.06-.06-.06-.25,0-.38.06-.06.31.13.38,0,.25-.31.33-.81.71-1,.06-.06.31.07.38,0q.19-.19.38-.31c.25-.25.51-.31.7-.43.5-.24.82-.67,1.27-.92.95-.55,1.83-1.17,2.79-1.72.63.01.87.45,1.18.9.37.25.62.76,1.06.89.05.32.17.75-.14.75.18.25.31-.05.63.01-.14.82-.78,1.43-1.35,1.92-.19.19-.38.25-.63.37-.13.13-.19.25-.32.44-.25.12-.44.18-.57.31-.13.12-.19.31-.38.43-.06.06-.31-.13-.32,0-.13.13-.32.5-.57.74,0,.13-.25-.06-.31,0,0,.12-.13.37-.2.37-.13.12-.44.12-.56.18-.13.06-.13.37-.2.44-.25.06-.38.12-.76.3-.19.25-.39.63-.64.75-.06.12-.31-.07-.31,0-.26.31-.44.37-.76.55-.26.12-.45.31-.64.49-.13.18-.51.43-.83.74-.13.12-.25.25-.38.31-.25.25-.25.31-.69.43-.25.06-.13.31-.45.3-.25.06-.38.44-.7.62-.19.12-.32.25-.5.37-.19.18-.32.37-.38.44-.06,0-.31-.07-.37,0-.26.31-.96.99-1.65,1.1-.44.05-.2.44-.58.74-.07.13-.32.12-.44.18-.06.06,0,.19-.26.19-.25,0-.26.62-.76.61-.12,0-.32.37-.7.55-.38.31-.89.62-1.46.92-.32.37-.71,1.12-1.46.98-.19.37-.57.62-.83.99-.38.18-.82.3-1.14.74-.06.06.25.19.25.32,0,0-.25.12-.19.25,0,.06,0,.56-.14.75,0,.06-.37.12-.37.18-.06.12.18.32.05.44-.13.13-.44.06-.57.18-.32.25-.26.62-.7.74.05.5-.39.68-.45.93.07-.25.44-.05.38,0-.25.25-.32.37-.89,1.18-.82.05-1.69.04-2-.65Zm-11.85,16.25c-.07.25.04,1.38.18.75-.06-.44-.11-.88-.11-1.25-.37,0-1.2.42-.83.74-.05-.38.44-.25.76-.24Zm2.86-6.73c.07-.38.65-1.24.59-1.56,0-.25.57-.68.14-.75-.07.5-.65,1.25-.59,1.5,0,.44-.76.68-.14.81Zm1.1-2.43c.25-.31.2-.56.33-.75,0-.06.38-.18.32-.31.19-.31.28-1.75.09-1.69-.07.31-.89.86-.46,1.19-.06-.25.26-.5.32-.25-.32.43-.52,1-.59,1.56-.06,0-.25.18,0,.25Zm8.06-22.96c.32-.25.9-1.11.27-1.5-.13.44-.51.62-.7.74,0,.13.12.38.05.44-.13.25-1.01.55-.45.87.13-.44,1.21-1.36.51-.31.19,0,.25-.06.32-.25Zm15.01,15.15c.37-.05.07-.69.51-.74.81.2,1.62.53,2.11,1.16-.19.5.12.69-.14,1.19-.12.18-1.25.11-.76.93-1.01.48-2.71.71-4.21.31,0,0-.06-.19-.18-.19-.25-.07-.57,0-.63-.2-.32.06-.38.44-.95.36-.24-.51-.81-.2-1.38-.21-.63-.07-1.5-.21-2.13-.41-.25-.07-.44-.07-.56-.38-.82.24-1.56-.09-2.24-.66-.57.18-1.2.35-1.88-.03.19-.25.32-.62.52-.93.19-.31.51-.43.7-.74.06-.19.07-.37.14-.63.13-.25.45-.74.89-1.12-.18-.69.51-.68.46-1.31.44.07.44,0,1,.14.06.06.18.19.12.19.37,0,.63-.24.94-.17.07,0,.06.19.19.19.25,0,.37.19.5.26.5.07.63-.05.93.2.13.06.5.26.81.39.69.14,1.51.08,2.19.22.38.07,1.44.02,2.13.22.06,0,.12.44.25.44.31.13.44.07.75.39,0,.69-.21,1.19-.59,1.5,0,.44.44-.18.51-.37Zm-8.82-5.78c0,.19-.83.68-.26.81.25-.37.33-.87,1.02-.8.13-.31.32-.62.64-.87-.44-.07,0-.37-.37-.44-.13.37-.45.37-.7.55-.19.31-.19.5-.32.75Z"/>
        <path class="cls-2" d="m154.33,156.43c-.08,0,.15-.15.3-.15.22,0,.07.15.15.15.68.24,1.73.18,2.1.56.15.08.59.53.96.69.3.38.82.76,1.34,1,.06.9.73,1.36,1.17,2.04-.32,1.42-1.01,2.31-1.7,3.21-1.07.81-1.61,2-2.89,2.66-.23.3-.61.67-1.15,1.03-.07.07-.15.15-.15.15-.3.15-.68.44-.98.44-.3,0-.53.44-.91.66-.15.15-.38.45-.46.52-.23.15-.52.07-.75.22-.08.07.07.15-.15.22-.07,0-.45.15-.52.15-.15.22-.31.44-.46.51-.46.22-.76.44-1.21.66-.23.15-.38.3-.61.44-.38.22-.76.36-1.21.66-.15.15-.31.45-.46.52-.38.22-.91.36-1.37.65-.22.15-.3.3-.45.44-.3.15-.68.22-1.21.51-.23.07-.08.07-.23.15-.3.22-.68.36-1.13.73-.22.07-.38.3-.46.37-.3.14-.68.06-.91.28-.15.07-.38.37-.53.44-.37.14-.98.14-1.36.43-.08.07-.15.38-.31.45-.07.07-.3-.08-.37,0-.15.07-.3.37-.53.44-.23.15-.37.15-.6.22-.22.07-.38.37-.53.52-.38.14-.9-.01-1.43.2-.07,0-.08.3-.16.37-.07.07-.37-.08-.44,0-.31.37-1.37.66-1.9,1.17-.52-.31-1.14.74-1.35-.02-.39.44-.76.81-1.22,1.11-1.8-.17-2.87,1.01-4.36.83-1.57-.17-2-1.68-3.42-2.38.16-.52-.21-.9-.2-1.28.08-.6.39-.59.47-1.12.69-.37,1.05-.14,1.58.17.08-.3.6-.14.9-.14.23-.15.38-.37.53-.29.07,0,0,.3.22.3.37-.14.45-.14.68-.29.15-.07,0-.22.23-.22.37,0,1.28-.43,1.66-.65.08-.07-.07-.22.23-.22.08,0,.6.08.68.01.38-.52,1.13-.81,1.89-1.1.07,0,.37.08.45,0,.23-.37,1.28-.58,1.82-1.17-.5-1.88.05-3.53.61-5.24.08-.3.24-.98.39-1.42.23-.23.31-.68.55-1.12.08-.14.08-.67.24-.9.08-.22.38-.22.46-.52.24-.45.17-.83.47-1.35.15-.29.01-.9.32-1.2.15-.15.15-.3.39-.9.08-.07.45-.14.53-.22.08-.22.08-.9.24-1.35,0-.08.15,0,.15-.22.08-.15,0-.52.01-.75.08-.07.53-.29.53-.37.16-.44.24-.9.48-1.42.07-.23.39-1.13.69-1.57.15-.3.23-.45.54-.74.23-.3.32-1.35.63-2.01.15-.15.46-.37.53-.52.15-.29.08-.52.16-.9.15-.22.38-.37.54-.67.16-.45.25-1.12.47-1.64,0-.07.23.15.23-.22,0-.15.31-.59.46-.9.08-.07.15-.14.23-.22.22-.22,0-.6.31-.9.07-.08.67,0,.38-.45-.07-.3-.15,0-.38,0-.15.15-.39.67-.76.67-.22,0-.39.59-.46.67-.3.29-.84.74-1.15,1.11-.23.22-.61.52-.76.74-.08.15-.3.29-.39.45-.07.07,0,.37,0,.45-.3.15-.75.21-.76.66,0,.46-.85,1.5-1.45,1.86-1.13.13-1.42-.63-2.01-.94-.83-.16-1.27-.77-1.79-1.15.55-1.71,1.25-3.2,2.32-4.62.08-.15.15,0,.3-.22,0-.3.3-.07.38-.22.15-.22.08-.52.24-.67,1.68-2.15,3.66-3.92,5.65-5.7.3-.3.76-.81,1.14-1.11.15-.15.69-.67.91-.74.45,0,.61-.59.91-.88.3-.07.53-.07.76-.14.46-.37.69-.81,1.22-1.18.07-.08.37,0,.37,0,.15-.22.46-.74.77-.96.23-.15.68,0,.9-.14.15-.15.24-.6.54-.74.23-.15.52,0,.91-.21.07-.07.3-.37.38-.45.61-.44,1.21-.81,1.45-1.63.68.01,1.28.09,1.66-.2.08-.07.23-.07.38-.14.15-.07.15-.3.3-.3.23-.15.38-.07.61-.22.37-.15.45-.29.76-.44.22-.07.46-.07.68-.22.15-.07,0-.22.23-.22.44,0,.3-.14.52-.22.23-.15.46-.37.91-.51.38-.07.83-.29,1.44-.65.23-.15.46,0,1.13-.21.08,0-.07-.15.15-.15.22-.07.68-.29,1.13-.51.23-.07.38-.15.53-.22.23-.15.53,0,1.13-.21.53-.14.83-.21,1.21-.66.15.08.75-.14.9.02.37.46,0-.08.68-.21.22,0,.82.16.97.01q.15-.15.38-.29c.15,0,.3-.14.3-.14.46-.07.67.31,1.65.17.15,0,.23-.22.38-.14.08,0,0,.29.22.15-.08.15.3-.15.3-.15.15-.15.23-.22.38-.22,1.04.24,1.94.7,3.06.94.07.61.59.69.58,1.44.74.39,1.49.85,2.08,1.31,0,.68.07.6.2,1.21.07.22.07.52.21,1.13.22.68.22.75-.25,1.87-.47,1.35-1.17,2.16-2.08,3.2-1.84,1.99-3.43,3.55-5.34,5.47-.38.29-.69.59-1.07.88-.61.6-1.37,1.41-2.28,1.99-.08.08.07.22-.23.22-.45-.01-.23.52-.46.74-.15.07-.52-.01-.67.14-.3.37-.46.67-.77,1.03-.08.23-.9-.01-.91.36-.23.6-.76.82-1.14,1.11-.46.37-.76.82-1.22,1.18-.22.15-.45.22-.6.44-.07,0-.23.44-.31.44-.08.07-.37-.08-.45,0-.61.59-.85,1.04-1.6,1.62-.15.07,0,.15-.23.22-.45,0-.54.59-.91.89-.23.07-.52.07-.76.22-.3.29-.46.59-.91.96-.22.07-.53.44-.91.58-.3.15-.52.07-.68.29-.07.07.07.37,0,.45-.37.22-.83.36-1.21.88.53-.14.6.16.9.17Zm-21.03,19.8c-.68-.16-.92,1.34-.7,1.34.08-.6.69-.67.7-1.34Zm18.05-16.77q-1.05-.09-1.65-.25c-.52.29-.91.74-1.66.87-.83-.16-1.06.29-1.81.2-.3.22-.46.67-.91.66-.76.14-.67-.76-1.12-.17-.32,1.2-1.02,2.46-1.48,3.43-.07.07-.15-.08-.23.14-.15.3-.23.52-.24.75q-.08.22-.23.37c-.08.07-.16.67-.24.74-.38.44-.32.97-.56,1.57,0,.08-.15,0-.15,0-.08,0-.24.74-.24.74-.08.07,0,.3,0,.37-.16.37-.69.74-.32,1.2.69-.74,1.67-1.03,2.57-1.54.15-.07.31-.45.46-.52.08-.07.38-.22.53-.22.23,0,.08-.15.23-.22.46-.3.68-.37.91-.67.08-.07.3.08.37,0,.46-.22.69-.66,1.06-.66.23,0,.08-.15.15-.22.38-.22.98-.44,1.36-.66.45-.29.54-.74.91-.73.53,0,.54-.44.76-.66.3-.15.68-.07.9-.21.23-.15.08-.45.31-.67,0-.07.3,0,.37,0,.08-.07.16-.37.24-.45.15-.07.37.08.52,0,.08,0,.16-.44.24-.52,0,0,.38-.15.45-.14.23-.07.08-.15.23-.22.83-.66,1.74-1.18,2.35-2.07-1.04-.39-2.77-.19-3.74-.81,0,.3-.24.45-.39.52Zm-5.94-4.07c-.39.52-.54.82-.77,1.19-.23.37-.54.82-.69,1.11-.08.22-.23.45,0,.52,0,0,.54-.89.91-.88v.15c.14.23.3-.37.3-.44,0-.08.38-.15.46-.22s-.07-.3,0-.52c0-.08.45-.07.46-.15.15-.3.09-1.13.25-1.65.08-.15.83-.59.23-.59-.3.29-.38.67-.77,1.11-.07.07-.3.22-.38.37Zm-.98,15.23c.21.68-.7,1.42-.18,1.57.08-.3.84-1.19.18-1.57Zm3.73-28.25c0-.07.3-.07.38-.22.08-.15-.22-.3-.22,0-.3,0-.76.82-.69.9.14.3.46-.67.53-.67Zm13.71-8.27c-.3,0-.15.15-.23.14-.46.22-1.2.21-1.66.5v.22c-.08.08-.38-.08-.46,0-.07,0,0,.15,0,.23-.07,0-.37-.08-.45-.01v.15c-.08.15-.46,0-.53,0-.3.37-.53.67-.91.74-.45,0-.61.44-.91.44-.53.06-.84.88-1.44.73-.08.75-.32,1.35-.71,2.01-.15.23-.23.23-.46.45-.08.07.07.37,0,.45-.08.22-.46.44-.46.67q-.08.3-.23.52c-.08.08,0,.38,0,.45-.24.52-.61.74-.7,1.12q-.07.3-.23.45c-.08.07,0,.37,0,.53,0,0-.22-.15-.23,0-.07,0,0,.3,0,.37,0,.07-.3,0-.3,0,0,.08-.24.74-.24.74,0,.08.07.3,0,.38,0,.07-.38.22-.38.29-.23.3,0,.46-.3.75l-.24.6c0,.22.07.37-.01.45,0,.15-.37.14-.38.22-.23.45,0,.53-.31.75-.08,0,0,.3,0,.37-.08.22-.38.37-.46.52-.08.15-.31.59-.31.67,0,.23-.15.15-.15.22-.08.15.07.52-.01.68-.08.15-.37.3-.45.44,0,.15,0,.22,0,.3,0,.38-.46.52-.54.89,0,.45-.68.29-.39.9.45.23.61-.22.91-.44.23-.22.45-.44.61-.67.3-.22.53-.14.76-.29.07,0-.07-.3,0-.38.3-.29.99-.66,1.22-.73.29,0,.23-.52.38-.67.23-.15.68-.21.98-.44.46-.44,1.15-1.56,1.6-1.55.23,0,.08-.22.23-.29.76-.44,1.3-1.11,1.9-1.47.3-.37.61-.52.91-.74.46-.45.91-.89,1.37-1.41.46-.29.91-.73,1.22-.88.23-.14.23-.22.46-.44.46-.44.91-.96,1.44-1.33,1.6-1.47,2.9-2.96,4.42-4.29.23-.37.9-.44.91-.74,0-.6,1.45-1.4,1.6-1.55.07-.07-.07-.45,0-.52.08-.08.37.08.52,0,.23-.22.39-.9.62-.89.38,0,.22-.08.3-.22.46-.37.54-.89.93-1.41.23-.3.75-.44.76-.89-.6.07-1.2.06-1.42-.25-.24.83-.98.59-1.67.73-.15,0-.22.22-.37.22-.3,0-.23.15-.3.15-.38.22-.98-.09-1.35-.02,0,.07-.23.52-.31.52-.07.07-.3,0-.38,0-.52.07-1.05.59-1.66.5,0,.08,0,.23-.23.15,0-.15.23-.29.23-.44.15,0,.23-.15,0-.23-.24.68-.84.82-1.37,1.1-.38.15-.98.44-1.13.51Zm-11.34,5.09c-.3,0-.38.14-.31.44-.45-.15-.47.9-.23.22.53-.07.46-.59.91-.66,0-.3.01-.68.02-.9.22,0,.31-.37,0-.52-.08.37-.31.6-.68.67,0,.38.07.6.29.76Zm1.23,17.73c-.08.3-.92,1.04-.25,1.42.08-.38.91-1.12.25-1.42Zm3.85-6.1c-.15.07-.1,1.35.21,1.13.39-.74.92-1.26,1.15-1.86,0-.07.23-.37.23-.45.08-.3.16-.15.24-.22.3-.52.08-.75.24-1.12,0-.08.46-.22.53-.29.23-.37.47-.83.7-1.35-.08-.15,0-.45-.3-.45-.16.67-.84.96-.93,1.78-.98.36-1.46,2.31-2.07,2.82Zm1.66-20.25c-.08.22-.38.44,0,.67,0-.29.46-.51,0-.67Zm8.55.51c-.37,0-.38.37-.53.52-.99.96.52-.14.53-.52Z"/>
        <path class="cls-2" d="m188.34,147.41c.28.44.34-.53.78-.42.38.1.81.21.8.73,0,.24.38.34.53.44.09.15.04.44.28.49.13.77.22,1.59.69,2.04-.26,1.15.11,2.41-.2,3.61,0,.1-.2.14-.2.24.05.05.24,0,.19.15-.1.39-.25.72-.3,1.06-.1.38-.11.86-.16,1.15,0,.05-.15.05-.15.19,0,.05,0,.1,0,.15-.1.14,0,.34-.2.77,0,.05-.25.24-.25.29-.05.14.04.29,0,.48-.05.09-.34.04-.39.23-.05.38,0,.48-.11.91-.05.05-.14,0-.15.09,0,.1,0,.15,0,.19-.05.1-.29.24-.34.33,0,.05.05.19,0,.24-.2.19-.4.67-.6,1.15,0,.05-.1,0-.1.19-.05,0,0,.1,0,.14-.05.05-.29.24-.34.28s.04.29,0,.34c-.05,0-.34.33-.63.42,0,.39-.25.57-.26,1.01-.1.09-.38.14-.48.28-.05.14-.05.34-.1.48-.2.19-.49.38-.64.57,0,.05.05.24,0,.24-.2.19-.25.28-.44.57-.15.29-.49.43-.5.81-.29.14-.58.28-.92.42-.1.62-.49.91-.69,1.43-.82.18-1.17.8-1.51,1.37-.97.27-1.61,1.32-2.59,1.84-.14.14-.44.43-.68.33.7-1.58,1.54-3.01,2.09-4.74-.04-.44-.24.19-.43.14-.11.67-.59.96-.61,1.83-.39.09-.44.38-.59.66-.1.14-.1.29-.2.48-.05.05-.24.19-.25.24-.1.24-.06.48-.15.62-.2.29-.59.67-.69,1.15-.58.04-.73.37-1.45.41-.38.04-.49.43-.92.52-.38.04-.92-.01-1.44-.17,0,0,0-.24-.14-.24-.29,0-.48-.1-.77-.25l-.14-.15c-.43-.2-.91-.11-1.35-.21,0,0-.05-.1-.09-.15-.34-.05-.34-.15-.77-.25-.33-.39-.32-1.07-1-1.03-.09-.24-.04-.58-.14-.63-.05-.05-.14,0-.14,0,0-.05.05-.29,0-.34,0,0-.2.05-.19,0,0-.05.05-.24,0-.24-.14-.2-.09-.34-.09-.58-.08-.92-.25-2.41.05-3.52,0-.14.16-.82.31-1.25.1-.38.21-.77.31-1.11.05-.33.06-.77.11-1.01.05-.05.2,0,.2-.14,0-.09.15-.24.29-.24-.18-.53.31-1,.31-1.39,0-.05.1-.19.15-.24.2-.48.55-1.24.8-1.77,0-.15.1-.05.1-.19.15-.43.3-.77.78-.95,0-.34.06-.77.16-.96,0-.05.29-.09.29-.14.15-.28.15-.43.3-.77.04-.05.29-.04.29-.09.05-.09,0-.19,0-.29.1-.19.44-.33.49-.62,0-.19.3-.48.45-.76.05-.05.29-.04.29-.09.05-.09,0-.19,0-.34.09-.09.24-.19.29-.24.05-.09.05-.19.2-.33.05-.09.25-.33.39-.62.1-.14.2-.24.29-.38.05-.1.34-.14.34-.19,0-.05-.05-.2,0-.24.25-.28.54-.52.79-.76.2-.19.3-.67.68-.62.3-.86,1.36-1.13,1.81-1.99.29-.24.63-.23.73-.47.2-.09.34-.28.49-.43.39-.28.92-.71,1.18-1.28.24-.09.44-.28.77-.18.1-.43.4-.72.64-1,.73-.18,1.31-.17,2.07.17.05,0,0,.1.14.15.05,0,.14-.05.14,0,.14.05.24.05.43.1.14.1.09.19.14.2.38.1.77,0,1.15.16.38.1.53.3.76.49.29.25-.05.44-.15.72.14-.04.29-.14.34-.28.19-.09,0,.58-.2.58Zm-8.46,11.43c0,.2-.05.34-.2.43-.05.1-.2.19-.25.28-.15.29-.16.77-.5.91-.14-.19-.48-.34-.42-.92-.77-.54-.32-1.45-.26-2.37,0-.58.11-1.2-.17-1.45-.2.62-.5,1.15-.89,1.72,0,.14-.25.24-.29.33-.1.24-.05.38-.15.57,0,0-.1.05-.15.19-.1.15-.29.38-.3.58,0,.14-.1.04-.15.09-.15.19-.3.67-.3.77-.1.14-.19.09-.2.14-.15.33-.25.62-.3.77v.1c0,.14-.1.09-.1.14-.3.72-.31,1.49-.95,1.96.14.39-.06.87-.16,1.3,0,.1-.15.14-.15.14-.15.57-.07,1.3-.51,1.63-.15.34.19.39.18.73,0,.24-.35.53-.35.77,0-.05.14.1.14.15.05.1,0,.19,0,.29.08,1.01.22,1.45.45,2.08.43.05.58-.09.72-.13.05,0,.1,0,.14,0,.19,0,.25-.23.44-.23.14,0,.09-.14.14-.19.2-.1.44-.04.63-.14.05-.05.2-.19.34-.28.1-.14.24-.24.39-.33.34-.19.49-.57,1.02-.42.15-.19.15-.43.34-.57.3-.24.58,0,.64-.43,0-.19.29-.19.44-.28.15-.19.25-.48.58-.47.15-.19.15-.53.26-.72.1-.14.38-.04.48-.19.05-.05.05-.29.15-.38.25-.24.58-.38.78-.57.1-.14.1-.38.15-.48s.2-.24.25-.33c.29-.24.34-.48.78-.57-.18-.58.25-.62.3-.81,0-.24.39-.52.49-.62.1-.19.39-.33.44-.43.1-.24.05-.43.15-.57,0-.05.1,0,.14,0,.05-.05-.04-.29,0-.34h.09c.1-.04,0-.19,0-.24.1-.09.29-.09.34-.19.05-.05.15-.43.15-.43,0-.38.29-.23.3-.57.05-.38.24-.24.34-.57,0-.24.15-.14.15-.19.15-.19.3-.62.3-.72,0-.29.29-.43.3-.62.05-.15.15-.1.15-.14.1-.29.06-.63.16-1.01,0-.05.1-.04.15-.14,0-.1-.04-.24,0-.29.15-.43.25-.53.3-.96.05-.43.26-1.01.36-1.39,0-.24-.19-.24-.19-.53,0-.14.2-.24.2-.57,0-.14-.14-.2-.19-.44-.04-.53-.09-.67-.13-1.06,0-.19.1-.53.01-.72,0-.05-.33-.29-.43-.44-.09-.15-.09-.53-.43-.39-.34.24-.88.66-.93.95,0,.19-.1.04-.15.19-.2.29-.25.77-.3.86-.1.34-.2.67-.35.91-.05.24-.2.48-.25.57-.05,0,0,.19,0,.24-.05.33,0,.38-.15.48-.05.09.04.48,0,.58,0,.05-.1,0-.19,0-.05.1.09.48,0,.58,0,.05-.1,0-.1,0-.1.09,0,.48,0,.58-.11.67-.45,1.39-.51,1.78,0,.19-.15.14-.15.19-.15.48.09.58-.16.77-.05.05,0,.24,0,.33,0,0-.1-.09-.15,0v.24c-.06.39.13.87-.21,1.16.29.1.33.39.32.78-.53.38-.55,1.24-1.32,1.32-.63-.06-.96-.4-1.24-.74-.33-.1-.77-.16-.96-.35.2-.38.35-.77.6-1.2,0-.14.25-.33,0-.44Zm1.82-2.19c-.29,0-.48,0-.58.09,0,.38-.25.48-.35.77.05,0,.24.05.14.19,0,0-.1.05-.15.14,0,.19-.2.24,0,.29.25-.33.44-.33.5-.72,0-.24.05-.14.1-.19.3-.43.64-.9.79-1.14.1-.14.2-.29.3-.48.15-.24.29-.24.44-.43.05,0-.04-.24,0-.29,0-.05.49-.24.15-.48-.2.33-.44.57-.74.76.04.77-.5.91-.6,1.48Zm.29,9.64c.05-.34.3-.62-.18-.73,0,.48-.83.9-.41,1.34.1-.39.3-.91.59-.62Zm4.55-8.08c-.15.72.44-.19.29-.28.19,0,.1-.19,0,0-.14-.05-.05.24-.1.28h-.2Zm2.11-2.52c0-.39.34-.53.35-.72,0-.34.64-.81.16-1.15-.15.24-.34.43-.49.57-.05.09-.05.14-.1.24-.1.15-.34.33-.34.43,0,.29-.2.53-.25.62-.05.09-.63.47-.15.57.2-.28.35-.77.74-1,0,.24-.53.52-.15.63,0-.15.1-.19.25-.19Z"/>
        <path class="cls-2" d="m237.3,124.63c-.37-.07.26-.43.45-.55.32-.44,1.01-.05,1.51.02.63.14,1.19.14,1.56.46.05.94-.4,1.69-.85,2.5,0,.06.06.32,0,.32,0,.06-.32.18-.32.18-.19.31-.14.69-.26,1-.06.12-.19,0-.19.18,0,.19-.25.44-.38.74-.06.06,0,.38,0,.44-.06,0-.19-.06-.19,0-.06.06.06.31,0,.32-.06.06-.38.18-.38.18-.26.5-.21,1.19-.4,1.62-.19.19-.71.99-.84,1.49,0,.12.06.25,0,.31,0,.13-.25.37-.38.43-.19.38-.14,1.25-.77,1.5.05.94-.47,1.81-.85,2.56-.27.81-.65,1.49-.98,2.24-.13.38-.14.94-.4,1.37-.06.13-.31.25-.38.31-.13.37-.2.87-.4,1.37-.2.5-.46,1.06-.65,1.75.37.38,1,.45,1.36.77.49,1.14,1.8,1.22,1.72,2.35,0,.57-.07.44-.45.75-.06.13-.2.5-.32.56-.13.12-.44,0-.63,0-.19.06-.38.25-.57.37-.19.19-1.2-.02-1.52.54-.25.31-.82.17-1.38.16-.89.93-.79,2.81-1.75,3.68.11.75-.21,1.37-.47,1.87,0,.06.06.38,0,.44h-.13c-.13.43-.21,1-.46,1.31-.06.06-.14.56-.2.62-.25.19-.08.88-.4,1.31-.13.19-.08.82-.21.94-.13.18-.32.31-.38.62-.26.56-.34,1.44-.59,1.88-.13.24,0,.43-.27,1,0,.06-.19,0-.19.19,0,.13-.2.69-.33,1.12-.13.44-.33.94-.46,1.37,0,.06-.19,0-.19.19,0,0,.06.13,0,.13-.07.19-.07.37-.14.63-.06.12-.2.49-.26.74-.06.19-.19.12-.19.19-.13.31-.32.5-.45,1,0,.37-.26.62-.33.93-.26.69-.4,1.81-.79,2.5-.13.12-.26.5-.45.93,0,.06-.13.06-.19.19-.13.5-.15,1.31-.34,1.94-.13.06-.25,0-.25.18,0,.06-.13.5-.2.75-.07.19-.13.19-.19.25-.19.37-.26.88-.39,1.25-.07.25-.14.56-.2.81-.06.12-.38.31-.44.37-.27.93.03,1.94-.8,2.69-.88.05-1.56-.09-2.12-.47-.62,0-1.51.23-1.88-.15,0-.25-.31-.51-.36-.82-.06-.06.19-.19.19-.37,0,0-.19-.06-.19-.19,0-.06.13-.38.2-.56,0-.06-.06-.31,0-.38.25-.18,0-.37.21-1,0,0,.19,0,.19-.19,0-.38.2-.88.4-1.5,0-.06-.06-.32,0-.44,0,0,.19.13.25,0,0-.06-.05-.32,0-.32.25-.25,0-.37.14-.94.06-.12.19,0,.19-.25,0,.13.14-.94.2-.94h.25c0-.06-.06-.37,0-.44,0,0,.13.06.19,0,.06-.19.07-.63.14-.88.06-.18.13-.5.26-.81.13-.25.14-.63.21-.94,0-.13.19,0,.19-.19,0-.06-.06-.19,0-.19.06-.19.2-.69.39-1.19.06-.06.19,0,.19-.18,0-.06,0-.13,0-.19.13-.31.4-1.37.59-2.06.06-.06.19-.06.19-.18,0-.06.01-.57.01-.63.19-.12,0-.56.2-.75,0,0,.25.07.25,0,.13-.44.21-.94.33-1.32.06-.06,0-.37,0-.43h.19c.19-.25.07-.63.27-.94,0-.06.19,0,.19-.18v-.19c.07-.25.2-.56.33-1.12.06-.06,0-.38,0-.44.06,0,.25.07.25,0,.06-.06-.05-.32,0-.31.19-.19.33-1,.64-1.37.13-.25.14-.44.14-.75.06-.06,0-.37,0-.44.44-.31.4-1.56,1.16-2.05-.1-1.57.66-2.18,1.05-3.3-.38-.07-.57.18-1.01.24-.25.05-.13.18-.32,0-.25-.25-.57.24-.82.3-.32.12-.63-.07-1.01-.02,0,.06,0,.25-.13.25-.82.05-2.01.28-2.77.71-.82-.07-1.38.11-2.07.16-.37-.2-.25.31-.38.43-.19.06-.63-.19-.57.18-.62.05-1.5-.08-1.95.29-.25.25-.75-.01-.94.24v.19c-.51.12-.94-.02-1.39.29-.44.05-.05-.69-.17-.94-.44.12-.45.74-.58,1.18-.69-.26-1.26.23-1.76.47-.38.31-.51.69-.96,1.37-.13.25-.2.68-.39,1.18,0,.06-.19,0-.19.19,0,.06-.19.31-.19.37-.32.74-.65,1.49-.98,2.3-.06.19-.07.5-.26.74-.07.19-.26.56-.39.75-.07.31-.07.5-.14.75-.06.19-.25,0-.25.25-.07.5-.39.56-.65,1.12-.2.56-.21,1.25-.34,1.75-.06.06-.19,0-.19.19,0,.44-.33.81-.58,1.18,0,.37-.02.88-.02,1.25-.37,0-.25.37-.45.62-.06.06-.25.25-.38.37-.06.19,0,.37-.13.62-.19.13-.38.12-.44.31-.63.05-1.19-.02-1.31-.34-.37-.32-.68-.57-.93-.83-.69.11-.93-.2-1.38-.21-.31-.19-.05-.69-.17-.94-.12-.25-.37-.32-.36-.63-.06-.38.2-.94.4-1.5.06-.12-.12-.69,0-.75,0-.06.19,0,.19,0,.13-.38.21-1.13.4-1.56,0-.19.07-.5.19-.75.13-.25.26-.37.39-.56.13-.31,0-.56.45-.62-.42-1.51.92-2.62,1.13-4.18.08-.88-1.12-.52-1.49-.96-.05-.69.58-1.06.59-1.62.06-.25.69-.43,1.2-.73.13,0,0-.13.19-.12.38-.06.57-.18.95-.36.97-2.3,1.95-4.49,2.98-6.54.19-.25.58-.81.58-1.12s.44-.43.45-.75c0-.31.25-.31.32-.43.06-.06-.06-.25,0-.32.19-.18.32-.25.44-.43.06-.06-.06-.38,0-.38.13-.12.57-.24.58-.55.07-.63.59-1.56,1.15-1.92.33-.81.72-1.75,1.23-2.49.06-.12.19,0,.19-.19,0-.06.13-.31.19-.31,0-.12.38-.18.38-.25.06-.13-.05-.31,0-.38.06-.06.32-.12.38-.25,0-.06-.06-.25,0-.31.13-.12.32-.25.38-.43.06-.12.13-.19.19-.31.06-.06.25-.18.25-.18.13-.32,0-.57.2-.75.07-.25.38-.31.57-.43.13-.19.07-.44.2-.56.26-.37.64-.62.95-.93.06-.06-.06-.38,0-.44.25-.12.5-.25.76-.55.56.26,1.19.39,1.37,1.03,1-.05,1.5.34,2.06.78-.07.37,0,.37-.14.94-.06.13-.13.37-.19.56,0,0-.26.56-.26.62-.19.13-.32.69-.52,1.06-.06.19-.2.5-.26.63-.06.06-.32.12-.38.25-.13.31-.2.74-.4,1.06-.06.13-.32.31-.38.43-.06.06.06.32,0,.32-.13.12-.13.25-.26.43,0,0-.14.56-.2.56-.13.19-.25.31-.32.56-.06.13.05.38,0,.38-.06.06-.25,0-.25,0-.06.19-.07.44-.2.63-.06.12-.32.25-.32.31-.25.37-.33.68-.45.99-.06.13-.32.31-.44.37,0,.13.12.44,0,.57,0,.12-.26.25-.32.44-.06.06.06.31,0,.37-.13.06-.13.12-.2.37-.06.19-.19.31-.26.63,0,.13-.33.69-.52,1.06-.13.06.06.38,0,.44-.13.06-.38-.07-.44,0-.06.07.06.32,0,.32,0,.06-.13,0-.19,0-.2.44.05.88-.21,1.19.13.25.25-.06.57,0,.7-.18,1.51-.29,1.95-.72.5,0,.88.01,1.38.02.76-.55,1.64-.92,2.71-1.15.06,0,.25.07.31,0,.32-.06.32-.18.76-.3.06-.06.44,0,.44,0,.19-.31.37-.06.75-.24.13-.06.32-.31.44-.36.38-.06.82-.05,1.13-.11,0-.13.06-.25.12-.25.38-.05.57-.12,1.01-.17.38-.12,1.32-.11,1.58-.42.06-.06.69-.12.95-.3.44,0,.94.02,1.31.02.77-.87,1.03-2.05,1.43-3.05,0-.13.19,0,.19-.25,0-.06-.05-.57,0-.56h.19c.06-.06,0-.31,0-.38.06,0,.19.07.19,0,.06-.06-.05-.37,0-.37.25-.19.07-.25.2-.56.06-.12.38-.12.44-.25.13-.25.07-.43.14-.75.52-1,.91-2.05,1.42-2.99,0-.06.14-.75.2-.81q.25-.12.38-.37c.06-.06.19-.18.19-.18.13-.25.01-.69.21-.94.06-.19.5-.3.57-.43.06-.06-.19-.19-.12-.37,0,0,.13-.06.13-.18.07-.25.13-.38.2-.56.06-.06.2-.5.26-.56,0,0,.19.06.19,0,0-.13-.06-.38,0-.38,0-.06.13,0,.19,0,0-.06-.06-.32,0-.44,0,0,.38-.12.38-.18.13-.25.07-.63.2-.94.06-.06.19.06.19-.13,0-.25.26-.56.39-.87.06-.06.19-.12.19-.12.13-.25.07-.57.2-.82.06-.06.25.07.25-.12,0-.06.14-.56.14-.63.06-.06.38-.12.38-.18.13-.06-.06-.32,0-.38.32-.43.52-.87.83-1.36.13-.19.2-.44.39-.75.13-.12.25.07.38-.18.06-.06,0-.25,0-.38.38-.69.7-1.12,1.4-1.55-.13-.19-.25-.06-.25,0Zm-25.82,15.23c.37,0,.13-.5,0-.19-.84,1.31-1.74,2.61-2.51,4.04,0,.19-.38.37,0,.56.58-.87,1.53-1.48,1.55-2.92.51-.3.77-.93.97-1.49Z"/>
        <path class="cls-2" d="m265.88,135.5c-.13.56.57-.43.5.19-.02,1.19-.54,2.44-.81,3.44-.19.56-.2.69-.39,1.31-.33.75-.66,2.12-1.05,2.87-.06.06,0,.38,0,.44-.38.25-.58,1.43-.85,2.06,0,.19-.13.25-.26.44,0,.12,0,.44-.07.56,0,.06-.13,0-.19.25,0,.13-.19.19-.19.38-.19.31-.08.75-.21,1.13,0,0-.25,0-.25.12,0,.06,0,.56-.07.63-.32.25-.4,1.38-.66,2.12-.19.56-.52,1.13-.72,1.75.06.37.32-.12.51-.18.25-.18.44-.12.75-.24.44-.18,1.14-.36,1.45-.54.12.31,1.07-.05,1.31.21v.19c0,.06.31,0,.38,0,.25.51,1.94.28,2.24,1.03-.07.63-.39.94-.34,1.69-.75.18-.95.87-1.83.79-.57.3-1.2.36-1.52.73-.5,0-.88-.01-1.38-.02-.25.12-.44.37-.45.74-1.13.11-1.52.79-2.64.77-.38-.13-.2.5-.45.81-.38.18-.26.43-.45,1.12-.13.31-.2.56-.33.88,0,0-.32.18-.25.25.31.25-.15,1.25-.41,1.94-.26.44-.52.87-.65,1.31-.06.44-.19.5-.26.81-.07.32-.2.5-.26.75-.25.24-.2.68-.46,1.31,0,.06-.19.06-.19.18-.07.12-.07.25-.07.31-.06.19-.13.37-.32.74,0,.13-.07.38-.2.75-.13.06-.44.37-.57.74-.06.12.05.69-.14.81q-.13.13-.19.31c-.07.25-.19.19-.19.25-.38.37-.52.81-.83,1.05-1.13.11-1.81-.21-2.44-.6-.75-.14-1.13.49-1.5-.02,0-.38.32-.37.51-.75.13-.25.14-.75.33-1,0-.06.31-.05.31-.12.13-.12,0-.37.07-.44.19-.13.57-.18.7-.3.25-.31.13-.63.32-.74.13-.13.19-.31.26-.44.25-.25.77-1.37.53-2.12-1.27,1.11-1.74,3.23-2.82,4.35-.32.56-.4,1.25-.84,1.55-.25-.06-.18-.44-.18-.75-.06-.18-.12-.75-.05-1,.07-.56.4-1.06.59-1.62.07-.5.14-1.06.27-1.44.2-.93.78-1.99,1.24-3.24.07-.37.14-.75.27-.94.13-.06.25,0,.25-.19.07-.49,1.15-1.67.92-2.68-.31.12-.38.62-.45.87,0,.13-.13.12-.25.25-.06.32-.13.38-.32.81-.44-.25.2-.88.14-1.19-.31-.13-1.2.23-1.19-.21-.57.05-.57.49-.76.74-.75-.14-1.19.05-1.39.61-.69-.08-1.13.05-1.63.16-.19.12-.44.37-.51.55-.44,0-.82.05-1.13.36-.44.31-1.19-.02-1.7.35,0,.06-.07.32-.19.37-.32.19-.57.12-.82.18-.38.25-.89.87-1.39.67,0,.38-.38.5-.76.74.05.57-.52,1.06-.77,1.62-.19.37-.39,1-.72,1.43,0,.06.12.31,0,.31h-.13c-.2.56-.27,1.25-.53,2-.07.25-.38.18-.45.75-1.06-.14-1.62-.65-3-.49,0-.19.14-.56.07-.82.06-.06-.25-.32-.25-.32,0-.37.26-.37.32-.62,0-.25-.18-.25-.12-.57.07-.38.39-.81.52-1.37.14-.44.27-1.13.83-1.49-.11-.63-.86-.64-.73-1.26.39-.93.9-1.49,1.91-1.6.06-.13.13-.25.19-.37.13-.19.38-.44.51-.56.19-.18.39-1.06.84-1.55.06-.12.19,0,.19-.19,0-.06,0-.56.07-.56.19-.13.25-.13.38-.44.06-.06.06-.32.06-.32.06-.06.44-.12.44-.18,0-.13,0-.44.07-.44,0-.06.19,0,.19,0,0-.06,0-.32.07-.38h.13c.25-.31.39-.81.58-1.12.13-.12.19,0,.25-.18,0-.13.32-.49.64-.55.07-.44.27-.94.46-1.24,0-.06.38-.12.38-.19.06-.06,0-.25.07-.31.06-.19.32-.31.44-.43,0-.06-.06-.32,0-.32.13-.12.44-.18.44-.25.12-.12.13-.31.26-.56.19-.18.38-.37.51-.62.13-.19.13-.37.26-.56.06-.06.31-.12.38-.18,0-.13,0-.32.07-.38.13-.13.32-.25.44-.37.06-.13-.05-.32.07-.37.25-.13.56-.06.63-.18.07-.38.14-.62.33-.81.13-.13.32-.31.51-.37.07-.19.07-.56.26-.75.13-.19.56-.18.64-.62,0,0,.19-.25.25-.31.07-.13.32-.31.38-.43.19-.13.13-.38.32-.56.13-.19.32-.31.38-.37.06-.06,0-.31.07-.44.06-.06.44-.12.51-.18.13-.13.13-.31.32-.56.13-.25.64-.43.83-.74,0-.06,0-.32.07-.32.13-.19.63-.43.83-.68.13-.12.13-.44.26-.56.06,0,.13-.12.25-.19.06-.06.07-.19.19-.12,0-.12.63-.3.38-.43-.12-.19.19-.12.38-.31.19-.25.13-.44.26-.63.13-.18.32-.24.38-.43.32-.25.57-.37.77-.74.13-.38.64-.74.89-1.12.13,0,.19-.25.19-.37.25-.18.51-.24.7-.55.13-.25.13-.44.38-.62.13-.19.25-.25.44-.37.13-.19.19-.38.44-.56.13-.19.25-.25.45-.37.13-.19.26-.88.83-.74.19-.5.52-.81.76-1.18.51,0,.32-.5.89-.36.25-.25.33-.69.71-1,.69.08,1.26-.35,1.89-.28.62.07.99.39,1.3.77,1.51-.23,2.06.47,2.74.98-.07.63-.45.94-.59,1.56Zm-24.17,21.77c.25,0,.32-.5.07-.5-.2.44-.58,1.06-.78,1.31-.13.12-.32.18-.5.37-.19.31-.33.68-.58.93-.13.31-.45.56-.26.75.06-.19.32-.12.12.26-.06,0-.19.12,0,.19.83-.87,1.6-1.86,1.93-3.3Zm1.36-2.68c-.39,1,.57-.24.38-.37.19,0,.19-.25,0,0-.25-.06-.07.31-.19.37-.06.06-.13,0-.19,0Zm12.2-10.16c.05.5-.32.68-.39,1.06-.51.36-.76.74-1.21,1.17,0,0,.12.19-.06.25,0,0-.25-.06-.32,0-.06.13,0,.44-.07.56-.13.18-.57.37-.63.55-.71.74-1.15,1.17-1.72,1.91,0,0-.13-.06-.13,0-.19.06-.13.56-.33.75-.57.18-.7.81-1.33.92-.07.75-.77,1.24-.96,1.55-.19.25-.07.5-.26.75-.13.18-.51.24-.76.36,0,.06-.19.56-.19.56-.06.19-.13.06-.19.18-.45.5-.58.87-.96,1.24-.06,0-.26.5-.32.56-.19.18-.25.18-.38.31-.06.06-.07.38-.07.44-.06,0-.18,0-.18,0-.13,0,0,.25-.06.31-.19.31-.45.37-.7.62-.13.25-.2.56-.52.81.88.21.77-.74,1.33-.79.69-.12,1.64-.73,2.38-.15,0-.5.14-.81.45-1,.38-.31.31.19,1.01.02,0-.32.19-.44.39-.5.37,0,.62,0,1.06.02.57-.43,1.08-.98,2.08-.72.77-.74.85-2.43,1.29-2.74.06,0,.07-.25.07-.37.39-1,.98-2.62,1.24-3.31.13-.19,0-.56.14-.75.06-.06.31-.25.44-.43.39-.56.15-1.01.4-1.62.2-.44.38-.37.52-.81.26-.75.4-1.69.66-1.93l.32-.81c.13-.25.39-.69.14-.94-.44.43-.7.93-1.15,1.42-.32.19-.45.62-1.01.55Zm-9.58,7.13c-.25-.44.14-.56-.12-.76-.32.37-.71,1.31-.07.57-.06.06-.06.25.19.19Zm2.07-3.86c-.07.32-.83.74-.39,1-.05-.44.89-.81.39-1Zm5.44,18.09c.19-.31.46-1.31.07-.75,0,.38-1.02.99-.58,1.37-.06-.44.38-.44.51-.62Zm4.84-17.68c-.19.25-.32.37-.32.5-.13.19,0,.44.18.44.2-.69.71-.99,1.03-1.68.13,0,.25.25.32,0,0-.25.13-.12.19-.25.38-.55.64-1.24.84-1.68,0-.13.07-.44-.12-.44-.2.88-.65,1.43-1.41,1.74-.07.5-.7,1.12-.71,1.37Zm6.24-10.32c-.07.25-.07.63-.27.93-.13.25-.32.31-.51.62-.25.37-.38.75-.45.87-.25.31-.71,1-.33,1.19.45-.87.96-1.62,1.42-2.49.13-.25.58-.74.58-.93.06-.31.19-.12.25-.18.19-.5.26-1.06.77-1.37,0-.25.07-.5-.12-.57-.26.56-1.02,1.37-1.09,1.68-.07.25-.13.06-.25.25Z"/>
        <path class="cls-2" d="m313.71,73.24l-115.6,55.68-9.76,4.7s5.53-9.38,5.53-9.38l11.53-19.54s.17,3.61.17,3.61c-.84-1.2-13.04-18.01-13.4-18.53,0,0,1.78-1.98,1.78-1.98l35.51-39.59s1.27,5.28,1.27,5.28c0,0-40.61-15.71-40.61-15.71l3.18-.44-67.95,50.03s.87-1.38.87-1.38c0,0-3.11,20.2-3.11,20.2,0,0-.18,1.14-.18,1.14,0,0-1.29.99-1.29.99-1.56,1.14-32.85,25.16-33.34,25.5-1.31-.91-24.38-16.37-26.46-17.79,0,0,4.81-2.9,4.81-2.9l-1.52,46.14-1.81-2.28s31.54,6.04,31.54,6.04c0,0,.77.15.77.15l.99.9c1.15,1.12,23.76,21.5,23.9,21.69-.88,2.71-7,21.73-8.01,24.84,0,0-4.7-8.44-4.7-8.44,0,0,26.76,10,26.76,10,0,0-2.91.68-2.91.68l34.73-29.17,1.17-.98s1.43.24,1.43.24l84.99,14.26s-.38,2.61-.38,2.61l-85.56-10.34,2.59-.74-34.73,29.17-1.28,1.08c-3.51-.82-29.44-7.29-32.62-8.04,0,0,1.09-3.37,1.09-3.37l6.72-20.83.66,3.19-18.81-21.5,1.76,1.05-31.1-7.97s-1.79-.46-1.79-.46c0,0-.02-1.82-.02-1.82-.07-3.18-.47-49.74-.51-51.55,0,0,4.86,2.49,4.86,2.49l24.69,12.65-3.27.15,31.84-20.2-1.47,2.13,5.05-19.8s.23-.88.23-.88c0,0,.65-.5.65-.5l66.75-51.61s1.31-1.01,1.31-1.01c0,0,1.87.57,1.87.57,0,0,41.8,12.64,41.8,12.64,0,0,10.15,3.07,10.15,3.07-4.17,4.08-40.42,39.82-45.58,44.89,0,0,.22-4.14.22-4.14.64.73,12.93,18,13.1,18.13,0,0-1.1,1.86-1.1,1.86,0,0-11.53,19.54-11.53,19.54l-4.23-4.67,117.26-52.08,1.11,2.4h0Z"/>
      </g>
    </g>
  </g>
</svg>