<svg width="493" height="64" viewBox="0 0 493 64" fill="none" xmlns="http://www.w3.org/2000/svg">
<g clip-path="url(#clip0_2079_155)">
<path d="M474.758 57.5807C474.758 58.1578 474.291 58.6266 473.716 58.6266C473.141 58.6266 472.674 58.1578 472.674 57.5807C472.674 57.0037 473.141 56.5349 473.716 56.5349C474.291 56.5349 474.758 57.0037 474.758 57.5807ZM472.997 57.5807C472.997 57.9774 473.321 58.302 473.716 58.302C474.111 58.302 474.435 57.9774 474.435 57.5807C474.435 57.1841 474.111 56.8595 473.716 56.8595C473.321 56.8595 472.997 57.1841 472.997 57.5807Z" fill="white"/>
<path d="M492.844 29.3193V32.4448L492.797 32.5169L490.545 34.0556V57.6048C490.545 57.6048 490.497 57.701 490.425 57.701H474.758C474.686 57.701 474.638 57.6529 474.638 57.6048C474.638 57.5567 474.686 57.5086 474.758 57.5086H490.305V34.0075V29.3193C490.305 29.3193 490.365 29.2231 490.425 29.2231H492.725C492.797 29.2231 492.844 29.2712 492.844 29.3193ZM492.605 32.3967V29.4155H490.545V33.8032L492.605 32.4087V32.3967Z" fill="white"/>
<path d="M490.425 57.8573H474.758C474.602 57.8573 474.483 57.7491 474.483 57.6048C474.483 57.4606 474.602 57.3524 474.758 57.3524H490.149V29.3193C490.149 29.1751 490.269 29.0669 490.425 29.0669H492.725C492.88 29.0669 493 29.1751 493 29.3193V32.4448C493 32.529 492.952 32.6011 492.892 32.6492L490.712 34.1398V57.6048C490.712 57.7491 490.593 57.8573 490.437 57.8573H490.425ZM490.7 29.5718V33.5027L492.437 32.3126V29.5718H490.7Z" fill="white"/>
<path d="M467.009 47.3749C467.009 47.5552 466.865 47.7115 466.673 47.7115C466.482 47.7115 466.338 47.5673 466.338 47.3749C466.338 47.1826 466.482 47.0383 466.673 47.0383C466.865 47.0383 467.009 47.1826 467.009 47.3749Z" fill="white"/>
<path d="M466.673 47.7956C466.434 47.7956 466.254 47.6032 466.254 47.3748C466.254 47.1464 466.446 46.9541 466.673 46.9541C466.901 46.9541 467.093 47.1464 467.093 47.3748C467.093 47.6032 466.901 47.7956 466.673 47.7956ZM466.673 47.1344C466.542 47.1344 466.434 47.2426 466.434 47.3748C466.434 47.5071 466.542 47.6153 466.673 47.6153C466.805 47.6153 466.913 47.5071 466.913 47.3748C466.913 47.2426 466.805 47.1344 466.673 47.1344Z" fill="white"/>
<path d="M450.695 48.8776V46.2209H449.701V45.8723H452.096V46.2209H451.102V48.8776H450.695Z" fill="white"/>
<path d="M451.186 48.9737H450.599V46.3171H449.605V45.7761H452.18V46.3171H451.186V48.9737ZM450.791 48.7934H451.007V46.1368H452.001V45.9685H449.797V46.1368H450.791V48.7934Z" fill="white"/>
<path d="M452.971 45.8723H452.576V48.8896H452.971V45.8723Z" fill="white"/>
<path d="M453.067 48.9737H452.48V45.7761H453.067V48.9737ZM452.671 48.7934H452.887V45.9564H452.671V48.7934Z" fill="white"/>
<path d="M453.354 48.8776L454.516 45.8604H454.947L456.181 48.8776H455.726L455.378 47.964H454.121L453.785 48.8776H453.366H453.354ZM454.217 47.6395H455.235L454.923 46.81C454.827 46.5576 454.756 46.3532 454.708 46.1849C454.672 46.3773 454.612 46.5696 454.54 46.7619L454.205 47.6515L454.217 47.6395Z" fill="white"/>
<path d="M456.313 48.9737H455.654L455.307 48.0601H454.169L453.833 48.9737H453.21L454.444 45.7761H454.995L456.301 48.9737H456.313ZM455.786 48.7934H456.037L454.875 45.9564H454.744L454.803 46.1608C454.851 46.3171 454.923 46.5214 455.019 46.7739L455.378 47.7355H454.085L454.468 46.7258C454.54 46.5455 454.588 46.3531 454.624 46.1608L454.66 45.9564H454.564L453.474 48.7934H453.702L454.037 47.8798H455.426L455.774 48.7934H455.786ZM454.36 47.5552H455.115L454.851 46.846C454.803 46.7258 454.768 46.6176 454.732 46.5334C454.708 46.6176 454.672 46.7138 454.648 46.7979L454.36 47.5552Z" fill="white"/>
<path d="M456.492 48.8776V45.8723H456.899L458.492 48.2405V45.8723H458.876V48.8776H458.457L456.875 46.5094V48.8776H456.492Z" fill="white"/>
<path d="M458.96 48.9737H458.409L458.385 48.9376L456.971 46.8219V48.9857H456.408V45.7881H456.959L456.983 45.8241L458.397 47.9399V45.7881H458.96V48.9857V48.9737ZM458.505 48.7933H458.768V45.9564H458.564V48.5409L458.397 48.2885L456.84 45.9684H456.576V48.8054H456.78V46.2208L458.505 48.8054V48.7933Z" fill="white"/>
<path d="M459.343 48.0241L459.702 47.9761C459.702 48.2045 459.75 48.3607 459.834 48.4449C459.906 48.529 460.014 48.5771 460.157 48.5771C460.253 48.5771 460.349 48.5531 460.421 48.505C460.493 48.4569 460.541 48.3968 460.577 48.3126C460.601 48.2285 460.613 48.1083 460.613 47.94V45.8604H461.008V47.9159C461.008 48.1684 460.972 48.3607 460.912 48.505C460.852 48.6372 460.756 48.7454 460.625 48.8175C460.493 48.8897 460.337 48.9257 460.157 48.9257C459.894 48.9257 459.69 48.8536 459.547 48.6973C459.403 48.541 459.343 48.3247 459.343 48.0241Z" fill="white"/>
<path d="M460.146 49.0217C459.858 49.0217 459.63 48.9375 459.475 48.7692C459.319 48.6009 459.235 48.3485 459.247 48.0239V47.9398L459.786 47.8677V47.9638C459.798 48.2283 459.858 48.3365 459.894 48.3725C459.954 48.4447 460.038 48.4687 460.146 48.4687C460.229 48.4687 460.301 48.4567 460.361 48.4086C460.421 48.3725 460.457 48.3245 460.469 48.2643C460.481 48.2163 460.505 48.1201 460.505 47.9157V45.752H461.092V47.8917C461.092 48.1562 461.056 48.3605 460.996 48.5168C460.924 48.6731 460.816 48.7933 460.661 48.8774C460.517 48.9616 460.337 48.9976 460.146 48.9976V49.0217ZM459.427 48.1081C459.427 48.3485 459.499 48.5288 459.607 48.637C459.726 48.7692 459.906 48.8414 460.146 48.8414C460.301 48.8414 460.445 48.8053 460.565 48.7452C460.685 48.6851 460.756 48.5889 460.816 48.4687C460.876 48.3485 460.9 48.1562 460.9 47.9157V45.9563H460.685V47.9398C460.685 48.1201 460.673 48.2523 460.637 48.3485C460.601 48.4447 460.541 48.5288 460.445 48.5769C460.361 48.637 460.253 48.661 460.134 48.661C459.978 48.661 459.846 48.613 459.75 48.5048C459.666 48.4206 459.619 48.2764 459.607 48.072L459.427 48.0961V48.1081Z" fill="white"/>
<path d="M462.11 45.8723H461.715V48.8896H462.11V45.8723Z" fill="white"/>
<path d="M462.206 48.9737H461.619V45.7761H462.206V48.9737ZM461.81 48.7934H462.026V45.9564H461.81V48.7934Z" fill="white"/>
<path d="M462.816 48.8776V45.8723H463.224L464.817 48.2405V45.8723H465.2V48.8776H464.793L463.2 46.5094V48.8776H462.816Z" fill="white"/>
<path d="M465.296 48.9737H464.745L464.721 48.9376L463.308 46.8219V48.9857H462.745V45.7881H463.296L463.32 45.8241L464.733 47.9399V45.7881H465.296V48.9857V48.9737ZM464.841 48.7933H465.104V45.9564H464.901V48.5409L464.733 48.2885L463.176 45.9684H462.912V48.8054H463.116V46.2208L464.841 48.8054V48.7933Z" fill="white"/>
<path d="M470.374 47.8198L470.77 47.9159C470.686 48.2405 470.53 48.4929 470.315 48.6612C470.099 48.8295 469.835 48.9137 469.512 48.9137C469.189 48.9137 468.925 48.8416 468.721 48.7213C468.518 48.5891 468.362 48.3968 468.254 48.1443C468.147 47.8919 468.099 47.6274 468.099 47.3389C468.099 47.0264 468.159 46.7499 468.278 46.5215C468.398 46.2931 468.566 46.1128 468.793 45.9926C469.009 45.8724 469.26 45.8123 469.524 45.8123C469.823 45.8123 470.075 45.8844 470.291 46.0407C470.494 46.1969 470.638 46.4133 470.722 46.6898L470.326 46.786C470.255 46.5696 470.159 46.4013 470.027 46.3051C469.895 46.2089 469.728 46.1609 469.524 46.1609C469.296 46.1609 469.093 46.221 468.937 46.3292C468.781 46.4374 468.674 46.5936 468.614 46.7739C468.554 46.9663 468.518 47.1586 468.518 47.3509C468.518 47.6034 468.554 47.8318 468.626 48.0241C468.698 48.2165 468.817 48.3607 468.973 48.4569C469.129 48.5531 469.296 48.6011 469.488 48.6011C469.716 48.6011 469.907 48.541 470.051 48.4088C470.207 48.2766 470.315 48.0842 470.362 47.8318L470.374 47.8198Z" fill="white"/>
<path d="M469.524 49.0218C469.177 49.0218 468.901 48.9497 468.674 48.8055C468.458 48.6612 468.29 48.4569 468.171 48.1924C468.063 47.9279 468.003 47.6515 468.003 47.3509C468.003 47.0264 468.063 46.7258 468.195 46.4854C468.326 46.233 468.506 46.0406 468.746 45.9084C468.985 45.7762 469.237 45.7161 469.524 45.7161C469.847 45.7161 470.123 45.8002 470.339 45.9685C470.554 46.1368 470.722 46.3652 470.806 46.6657L470.83 46.7619L470.255 46.8941L470.231 46.81C470.171 46.6056 470.075 46.4614 469.955 46.3772C469.835 46.2931 469.692 46.245 469.512 46.245C469.296 46.245 469.129 46.2931 468.985 46.4013C468.841 46.4974 468.746 46.6297 468.686 46.798C468.626 46.9783 468.59 47.1586 468.59 47.3509C468.59 47.5913 468.626 47.8077 468.698 47.988C468.769 48.1563 468.865 48.2886 469.009 48.3727C469.153 48.4569 469.308 48.5049 469.476 48.5049C469.68 48.5049 469.847 48.4448 469.991 48.3367C470.123 48.2285 470.219 48.0481 470.279 47.8197L470.303 47.7236L470.89 47.8678L470.866 47.952C470.782 48.3006 470.614 48.5651 470.386 48.7454C470.147 48.9257 469.859 49.0218 469.536 49.0218H469.524ZM469.524 45.9084C469.273 45.9084 469.045 45.9685 468.841 46.0767C468.638 46.1849 468.482 46.3532 468.362 46.5696C468.254 46.7859 468.195 47.0504 468.195 47.3509C468.195 47.6274 468.242 47.8799 468.35 48.1203C468.446 48.3487 468.59 48.529 468.781 48.6492C468.973 48.7694 469.225 48.8295 469.524 48.8295C469.824 48.8295 470.063 48.7454 470.267 48.5891C470.446 48.4448 470.578 48.2405 470.662 47.976L470.446 47.9159C470.386 48.1443 470.279 48.3246 470.123 48.4448C469.955 48.5891 469.74 48.6612 469.5 48.6612C469.297 48.6612 469.105 48.6131 468.937 48.5049C468.758 48.3968 468.638 48.2405 468.554 48.0361C468.47 47.8318 468.434 47.6034 468.434 47.3269C468.434 47.1225 468.47 46.9182 468.53 46.7258C468.602 46.5215 468.722 46.3532 468.889 46.233C469.057 46.1128 469.273 46.0527 469.524 46.0527C469.74 46.0527 469.931 46.1128 470.087 46.221C470.219 46.3171 470.327 46.4614 470.398 46.6657L470.614 46.6176C470.53 46.4013 470.41 46.233 470.243 46.1128C470.051 45.9685 469.812 45.8964 469.536 45.8964L469.524 45.9084Z" fill="white"/>
<path d="M471.273 48.8776V45.8723H471.668V47.1105H473.249V45.8723H473.644V48.8776H473.249V47.4591H471.668V48.8776H471.273Z" fill="white"/>
<path d="M473.74 48.9737H473.153V47.5552H471.764V48.9737H471.177V45.7761H471.764V47.0143H473.153V45.7761H473.74V48.9737ZM473.333 48.7934H473.548V45.9564H473.333V47.1946H471.584V45.9564H471.368V48.7934H471.584V47.3749H473.333V48.7934Z" fill="white"/>
<path d="M474.77 45.8723H474.375V48.8896H474.77V45.8723Z" fill="white"/>
<path d="M474.866 48.9737H474.279V45.7761H474.866V48.9737ZM474.471 48.7934H474.686V45.9564H474.471V48.7934Z" fill="white"/>
<path d="M475.477 48.8776V45.8723H475.884L477.477 48.2405V45.8723H477.86V48.8776H477.441L475.86 46.5094V48.8776H475.477Z" fill="white"/>
<path d="M477.944 48.9737H477.393L477.369 48.9376L475.956 46.8219V48.9857H475.393V45.7881H475.944L475.968 45.8241L477.381 47.9399V45.7881H477.944V48.9857V48.9737ZM477.501 48.7933H477.765V45.9564H477.561V48.5409L477.393 48.2885L475.836 45.9684H475.573V48.8054H475.776V46.2208L477.501 48.8054V48.7933Z" fill="white"/>
<path d="M478.196 48.8776L479.358 45.8604H479.789L481.023 48.8776H480.567L480.22 47.964H478.962L478.627 48.8776H478.208H478.196ZM479.07 47.6395H480.088L479.777 46.81C479.681 46.5576 479.609 46.3532 479.561 46.1849C479.525 46.3773 479.465 46.5696 479.394 46.7619L479.058 47.6515L479.07 47.6395Z" fill="white"/>
<path d="M481.166 48.9737H480.507L480.16 48.0601H479.022L478.687 48.9737H478.064L479.298 45.7761H479.849L481.166 48.9737ZM480.627 48.7934H480.879L479.717 45.9564H479.585L479.645 46.1608C479.693 46.3291 479.765 46.5334 479.861 46.7739L480.22 47.7355H478.926L479.31 46.7258C479.382 46.5455 479.429 46.3531 479.465 46.1608L479.501 45.9564H479.405L478.315 48.7934H478.543L478.878 47.8798H480.268L480.615 48.7934H480.627ZM479.202 47.5552H479.956L479.693 46.846C479.645 46.7258 479.609 46.6296 479.573 46.5334C479.549 46.6176 479.513 46.7138 479.489 46.7979L479.202 47.5552Z" fill="white"/>
<path d="M457.989 5.00072C457.989 5.57773 457.522 6.04655 456.947 6.04655C456.372 6.04655 455.905 5.57773 455.905 5.00072C455.905 4.42371 456.372 3.94287 456.947 3.94287C457.522 3.94287 457.989 4.41169 457.989 5.00072ZM456.229 5.00072C456.229 5.39742 456.552 5.72198 456.947 5.72198C457.343 5.72198 457.666 5.39742 457.666 5.00072C457.666 4.60403 457.343 4.27946 456.947 4.27946C456.552 4.27946 456.229 4.60403 456.229 5.00072Z" fill="white"/>
<path d="M455.953 5.00077C455.953 5.00077 455.905 5.09694 455.834 5.09694L440.287 5.14502L440.418 33.3343L440.382 33.4065C440.358 33.4305 440.335 33.4305 440.299 33.4305H437.747C437.687 33.4305 437.628 33.3824 437.628 33.3343L437.544 30.7378L437.568 30.6777L440.155 27.997L440.047 5.03683L440.083 4.9647C440.107 4.94066 440.131 4.94066 440.167 4.94066L455.834 4.89258C455.905 4.89258 455.953 4.94066 455.953 4.98875V5.00077ZM437.855 33.2382H440.167L440.143 28.3216L437.771 30.7739L437.843 33.2382H437.855Z" fill="white"/>
<path d="M440.287 33.5868H437.735C437.58 33.5868 437.46 33.4786 437.46 33.3344L437.376 30.7378C437.376 30.6777 437.4 30.6056 437.448 30.5575L439.987 27.9249L439.879 5.03685C439.879 4.96473 439.915 4.8926 439.975 4.84452C440.023 4.80845 440.095 4.78441 440.155 4.78441L455.822 4.73633C455.977 4.73633 456.097 4.84452 456.097 4.98877C456.097 5.13302 455.977 5.24121 455.822 5.24121L440.43 5.2893L440.55 33.3224C440.55 33.3945 440.514 33.4666 440.454 33.5147C440.406 33.5508 440.334 33.5748 440.275 33.5748L440.287 33.5868ZM438.011 33.0819H440.011L439.987 28.7063L437.939 30.834L438.011 33.0819Z" fill="white"/>
<path d="M487.131 9.70088V9.44844C487.203 9.44844 487.275 9.44844 487.347 9.4244L487.407 9.66482C487.323 9.68886 487.227 9.70088 487.131 9.70088ZM486.856 9.66482C486.772 9.64078 486.676 9.61674 486.592 9.58067L486.7 9.35228C486.772 9.38834 486.832 9.41238 486.904 9.4244L486.844 9.67684L486.856 9.66482ZM487.658 9.58067L487.55 9.35228C487.61 9.31621 487.682 9.28015 487.73 9.23206L487.886 9.4244C487.814 9.48451 487.73 9.53259 487.646 9.56865L487.658 9.58067ZM486.353 9.43642C486.281 9.37632 486.209 9.31621 486.161 9.24409L486.353 9.08781C486.353 9.08781 486.448 9.196 486.508 9.24409L486.353 9.44844V9.43642ZM488.089 9.23206L487.886 9.07579C487.886 9.07579 487.97 8.95558 488.006 8.89548L488.233 9.00366C488.197 9.08781 488.149 9.15994 488.089 9.23206ZM486.017 9.00366C485.981 8.91952 485.945 8.83537 485.921 8.7392L486.173 8.6791C486.185 8.75122 486.209 8.82335 486.245 8.88345L486.017 8.99164V9.00366ZM488.329 8.7392L488.077 8.6791C488.089 8.60697 488.101 8.53484 488.101 8.46272H488.353C488.353 8.55889 488.353 8.64303 488.317 8.7392H488.329ZM485.885 8.47474C485.885 8.37857 485.885 8.29442 485.909 8.19826L486.161 8.25836C486.149 8.33049 486.137 8.40261 486.137 8.47474H485.885ZM488.077 8.23432C488.065 8.16219 488.029 8.09007 488.006 8.02996L488.233 7.92177C488.269 8.00592 488.305 8.09007 488.329 8.18623L488.077 8.24634V8.23432ZM486.233 8.054L486.005 7.94581C486.041 7.86167 486.089 7.78954 486.149 7.71741L486.353 7.87369C486.353 7.87369 486.269 7.9939 486.233 8.054ZM487.886 7.84965C487.886 7.84965 487.79 7.74146 487.73 7.69337L487.886 7.48901C487.958 7.54912 488.029 7.60922 488.077 7.68135L487.886 7.83762V7.84965ZM486.508 7.70539L486.353 7.51306C486.424 7.45295 486.496 7.40487 486.58 7.3688L486.688 7.5972C486.616 7.63327 486.556 7.66933 486.508 7.71741V7.70539ZM487.538 7.58518C487.479 7.54912 487.407 7.52508 487.335 7.51306L487.395 7.26061C487.479 7.28466 487.574 7.3087 487.658 7.34476L487.55 7.57316L487.538 7.58518ZM486.892 7.51306L486.832 7.27264C486.916 7.24859 487.011 7.23657 487.107 7.23657V7.48901C487.035 7.48901 486.963 7.48901 486.892 7.51306Z" fill="white"/>
<path d="M443.952 38.0826H442.179V7.27271H474.83V9.0398H443.952V38.0826Z" fill="white"/>
<path d="M488.413 56.006H442.179V50.7408H443.952V54.2269H486.628V19.0293H488.413V56.006Z" fill="white"/>
<path d="M443.952 48.6492H442.179V48.8054H443.952V48.6492Z" fill="white"/>
<path d="M443.952 48.3365H442.179V48.0239H443.952V48.3365ZM443.952 47.7114H442.179V47.3988H443.952V47.7114ZM443.952 47.0983H442.179V46.7858H443.952V47.0983ZM443.952 46.4732H442.179V46.1607H443.952V46.4732ZM443.952 45.8481H442.179V45.5356H443.952V45.8481ZM443.952 45.223H442.179V44.9105H443.952V45.223ZM443.952 44.61H442.179V44.2974H443.952V44.61ZM443.952 43.9849H442.179V43.6723H443.952V43.9849ZM443.952 43.3598H442.179V43.0472H443.952V43.3598ZM443.952 42.7467H442.179V42.4342H443.952V42.7467ZM443.952 42.1216H442.179V41.8091H443.952V42.1216ZM443.952 41.4965H442.179V41.184H443.952V41.4965ZM443.952 40.8714H442.179V40.5589H443.952V40.8714ZM443.952 40.2584H442.179V39.9458H443.952V40.2584Z" fill="white"/>
<path d="M443.952 39.4771H442.179V39.6333H443.952V39.4771Z" fill="white"/>
<path d="M484.772 9.03986H484.688V7.26074H484.772V9.03986ZM484.376 9.03986H484.065V7.26074H484.376V9.03986ZM483.754 9.03986H483.442V7.26074H483.754V9.03986ZM483.119 9.03986H482.807V7.26074H483.119V9.03986ZM482.496 9.03986H482.184V7.26074H482.496V9.03986ZM481.873 9.03986H481.562V7.26074H481.873V9.03986ZM481.238 9.03986H480.927V7.26074H481.238V9.03986ZM480.615 9.03986H480.304V7.26074H480.615V9.03986ZM479.993 9.03986H479.681V7.26074H479.993V9.03986ZM479.358 9.03986H479.046V7.26074H479.358V9.03986ZM478.735 9.03986H478.423V7.26074H478.735V9.03986ZM478.112 9.03986H477.801V7.26074H478.112V9.03986ZM477.477 9.03986H477.166V7.26074H477.477V9.03986ZM476.854 9.03986H476.543V7.26074H476.854V9.03986Z" fill="white"/>
<path d="M480.687 30.2689C480.879 30.4372 480.975 30.6535 480.975 30.894V43.1314H466.673V30.0044H480.016C480.28 30.0044 480.496 30.0885 480.687 30.2689ZM478.184 30.9661L469.045 30.942V42.1937H478.447V31.2426C478.447 31.0142 478.196 30.9661 478.196 30.9661H478.184ZM470.398 32.072H477.417V33.0457H474.938V35.5461H477.286V36.5078H474.938V40.1982H477.417V41.1479H470.398V40.1982H472.638V36.5078H470.53V35.5461H472.638V33.0457H470.398V32.072Z" fill="white"/>
<path d="M450.3 38.1306H453.378L452.851 43.1554H449.797L450.288 38.1306H450.3ZM453.163 30.2568L453.378 33.4785H450.348L450.132 30.2568H453.163ZM463.978 33.3342H464.446V34.2839H463.978V36.6039H460.014V37.6618H463.667V38.6235H460.014V39.8857H464.254V40.8233H460.014V43.1554H457.379V40.8233H453.857V39.8857H457.379V38.6235H454.444V37.6618H457.379V36.6039H454.444V35.6543H457.379V34.2839H453.905V33.3342H457.379V32.072H454.444V31.1224H457.379V29.752H460.014V31.1224H463.02C463.284 31.1224 463.499 31.2065 463.691 31.3868C463.883 31.5551 463.978 31.7715 463.978 32.0119V33.3462V33.3342ZM461.822 32.1081L460.002 32.072V33.3342H461.81V32.1081H461.822ZM461.822 34.2839H460.014V35.6543H461.822V34.2839Z" fill="white"/>
<path d="M464.362 19.0292L462.589 20.0871H458.517V16.9496H462.876V15.3628H451.354V16.9496H455.81V20.0871H449.869V21.6618H455.45L450.432 28.2854H453.57L457.163 23.2486L460.768 28.2854H463.859L458.876 21.6618H464.362V20.604V19.0292Z" fill="white"/>
<path d="M480.963 18.2599C480.771 18.0916 480.543 17.9955 480.292 17.9955H475.309V14.894H472.65V17.9955H466.733V23.9579H472.65V28.3215H475.309V23.9579H481.25V18.885C481.25 18.6446 481.154 18.4402 480.963 18.2599ZM472.65 23.0082H470.602V22.8279H468.482V22.6837H470.602V22.5514H468.482V22.4072H470.602V22.275H468.482V22.1307H470.602V21.9985H468.482V21.8542H470.602V21.722H468.482V21.5777H470.602V21.4455H468.482V21.3013H470.602V21.169H468.482V21.0248H470.602V20.8925H468.482V20.7483H470.602V20.6161H468.482V20.4718H470.602V20.3396H468.482V20.1953H470.602V20.0631H468.482V19.9188H470.602V19.7866H468.482V19.6424H470.602V19.5101H468.482V19.3659H470.602V19.2336H468.482V19.0894H470.602V18.9331H472.65V23.0082ZM478.603 19.2336V23.0082H475.309V18.9331H478.603V19.2216V19.2336Z" fill="white"/>
<path d="M451.749 37.0968C451.174 37.0968 450.695 36.628 450.695 36.051C450.695 35.4739 451.162 35.0051 451.749 35.0051C452.336 35.0051 452.803 35.4739 452.803 36.051C452.803 36.628 452.336 37.0968 451.749 37.0968ZM451.749 35.1614C451.258 35.1614 450.851 35.5581 450.851 36.051C450.851 36.5438 451.246 36.9405 451.749 36.9405C452.252 36.9405 452.647 36.5438 452.647 36.051C452.647 35.5581 452.252 35.1614 451.749 35.1614Z" fill="white"/>
<path d="M451.761 36.8443C451.33 36.8443 450.971 36.4837 450.971 36.051C450.971 35.6182 451.33 35.2576 451.761 35.2576C452.192 35.2576 452.552 35.6182 452.552 36.051C452.552 36.4837 452.192 36.8443 451.761 36.8443ZM451.761 35.3537C451.378 35.3537 451.067 35.6663 451.067 36.051C451.067 36.4356 451.378 36.7482 451.761 36.7482C452.145 36.7482 452.456 36.4356 452.456 36.051C452.456 35.6663 452.145 35.3537 451.761 35.3537Z" fill="white"/>
<path d="M451.773 37.3735C451.019 37.3735 450.408 36.7604 450.408 36.0151C450.408 35.2698 451.019 34.6567 451.773 34.6567C452.528 34.6567 453.139 35.2698 453.139 36.0151C453.139 36.7604 452.528 37.3735 451.773 37.3735ZM451.773 34.6688C451.031 34.6688 450.42 35.2698 450.42 36.0151C450.42 36.7604 451.031 37.3615 451.773 37.3615C452.516 37.3615 453.127 36.7604 453.127 36.0151C453.127 35.2698 452.516 34.6688 451.773 34.6688Z" fill="white"/>
<path d="M451.378 34.4402C451.15 34.4762 450.935 34.5604 450.755 34.7046C450.563 34.8489 450.42 35.0412 450.336 35.2576H450.36C450.443 35.0533 450.587 34.8729 450.779 34.7287C450.959 34.5965 451.174 34.5003 451.39 34.4762V34.4522" fill="white"/>
<path d="M450.899 37.1449C450.695 36.9886 450.539 36.7843 450.443 36.5439C450.348 36.3034 450.324 36.039 450.372 35.7745V35.7024L450.467 35.7264V35.7986C450.408 36.039 450.431 36.2914 450.515 36.5198C450.599 36.7482 450.755 36.9406 450.947 37.0848L450.899 37.1449Z" fill="white"/>
<path d="M452.827 37.1812C452.719 37.2893 452.611 37.3735 452.48 37.4456C452.3 37.5298 452.12 37.5778 451.917 37.5899V37.6259C452.12 37.6259 452.312 37.5778 452.492 37.4817C452.623 37.4096 452.755 37.3254 452.851 37.2172L452.827 37.1932" fill="white"/>
<path d="M452.276 37.3493L452.252 37.2772C452.564 37.169 452.827 36.9406 452.971 36.6521L453.043 36.6882C452.887 37.0007 452.612 37.2411 452.276 37.3613" fill="white"/>
<path d="M453.067 35.1255L453.031 35.1495C453.186 35.3419 453.282 35.5703 453.306 35.8227H453.342C453.318 35.5703 453.21 35.3298 453.055 35.1255" fill="white"/>
<path d="M453.306 36.1953C453.306 36.4478 453.21 36.6882 453.067 36.8805H453.091C453.234 36.6882 453.318 36.4478 453.33 36.1953H453.306Z" fill="white"/>
<path d="M452.659 34.9933C452.444 34.801 452.18 34.6928 451.893 34.6808V34.6086C452.192 34.6327 452.48 34.7409 452.695 34.9452L452.647 34.9933H452.659Z" fill="white"/>
<path d="M451.869 35.0773H451.641L451.677 34.885H451.833L451.869 35.0773Z" fill="white"/>
<path d="M452.168 35.1496L451.953 35.0775L452.036 34.9092L452.18 34.9573L452.168 35.1496Z" fill="white"/>
<path d="M452.432 35.3177L452.24 35.1855L452.372 35.0532L452.504 35.1374L452.432 35.3177Z" fill="white"/>
<path d="M452.647 35.5462L452.492 35.3779L452.659 35.2817L452.755 35.3899L452.647 35.5462Z" fill="white"/>
<path d="M452.731 35.8708L452.683 35.6424L452.875 35.6304L452.911 35.7866L452.731 35.8708Z" fill="white"/>
<path d="M452.755 36.2074V35.979L452.935 36.0151V36.1713L452.755 36.2074Z" fill="white"/>
<path d="M452.635 36.5078L452.731 36.3035L452.887 36.4117L452.827 36.5439L452.635 36.5078Z" fill="white"/>
<path d="M452.456 36.7724L452.612 36.592L452.731 36.7363L452.635 36.8565L452.456 36.7724Z" fill="white"/>
<path d="M452.192 36.9648L452.384 36.8325L452.456 37.0128L452.336 37.097L452.192 36.9648Z" fill="white"/>
<path d="M451.557 35.0774L451.342 35.1616L451.306 34.9812L451.45 34.9211L451.557 35.0774Z" fill="white"/>
<path d="M451.258 35.1977L451.066 35.3179L450.995 35.1496L451.126 35.0654L451.258 35.1977Z" fill="white"/>
<path d="M450.994 35.3778L450.863 35.5581L450.731 35.4259L450.827 35.3057L450.994 35.3778Z" fill="white"/>
<path d="M450.827 35.6544L450.743 35.8708L450.587 35.7746L450.635 35.6304L450.827 35.6544Z" fill="white"/>
<path d="M450.743 35.991L450.755 36.2194L450.563 36.2073L450.551 36.0511L450.743 35.991Z" fill="white"/>
<path d="M450.779 36.3516L450.863 36.5679L450.671 36.604L450.611 36.4598L450.779 36.3516Z" fill="white"/>
<path d="M450.935 36.6521L451.09 36.8324L450.923 36.9286L450.827 36.8084L450.935 36.6521Z" fill="white"/>
<path d="M451.198 36.8806L451.39 37.0008L451.258 37.1451L451.138 37.0609L451.198 36.8806Z" fill="white"/>
<path d="M451.51 37.0488L451.737 37.0729L451.677 37.2532L451.522 37.2412L451.51 37.0488Z" fill="white"/>
<path d="M451.845 37.0608L452.073 37.0007L452.085 37.1931L451.941 37.2291L451.845 37.0608Z" fill="white"/>
<path d="M475.513 38.3351H475.501L475.261 38.1067C475.896 37.4576 476.938 37.4576 477.573 38.1067L477.333 38.3471C476.83 37.8423 476.004 37.8423 475.501 38.3471L475.513 38.3351Z" fill="white"/>
<path d="M475.752 38.5754C476.124 38.2027 476.735 38.2027 477.118 38.5754L476.878 38.8158C476.639 38.5754 476.232 38.5754 475.992 38.8158H475.98L475.74 38.5874H475.752V38.5754Z" fill="white"/>
<path d="M476.219 39.0443C476.339 38.924 476.519 38.924 476.639 39.0443C476.746 39.1645 476.758 39.3448 476.639 39.453C476.519 39.5732 476.339 39.5732 476.219 39.453C476.1 39.3448 476.1 39.1524 476.219 39.0443Z" fill="white"/>
<path d="M488.401 11.5403H486.628V17.0459H488.401V11.5403Z" fill="white"/>
<path d="M156.644 27.516V18.0434H151.697V31.4589H171.197V34.2358H148.703V18.0434H144.379V15.3026H148.703V8.6069H151.697V15.3026H156.644V7.95776H159.518V15.3026H164.681V8.30637H167.675V15.3026H172.035V18.0434H167.675V27.516H156.644ZM159.518 18.0554V24.8714H164.681V18.0554H159.518Z" fill="white"/>
<path d="M195.439 21.3853C197.691 23.5491 201.093 25.3042 204.578 26.1938C203.932 26.7828 203.069 27.8887 202.638 28.634C200.602 27.9849 198.625 26.9992 196.829 25.8211V36.027H193.858V25.3282H196.146C194.601 24.1862 193.176 22.8279 192.098 21.3853H188.792C187.678 22.8038 186.265 24.1622 184.684 25.3042H187.247V27.2757C187.247 30.2088 186.504 33.9714 180.419 36.3155C180.084 35.5702 179.126 34.5243 178.467 33.9714C183.713 32.1562 184.3 29.3433 184.3 27.1915V25.5927C182.384 26.915 180.288 27.9969 178.156 28.7663C177.724 28.021 176.886 26.9751 176.239 26.3861C179.545 25.4244 182.971 23.5852 185.258 21.3853H179.665V8.79932H201.045V21.3853H195.427H195.439ZM182.528 13.9443H188.828V11.1314H182.528V13.9443ZM182.528 19.0412H188.828V16.1682H182.528V19.0412ZM198.098 11.1434H191.738V13.9563H198.098V11.1434ZM198.098 16.1682H191.738V19.0412H198.098V16.1682Z" fill="white"/>
<path d="M220.401 22.6716C219.503 21.9263 217.502 20.4838 216.017 19.462C214.939 21.1329 213.119 22.7558 210.088 24.1141C209.717 23.5612 208.914 22.6596 208.268 22.2028C211.849 20.8204 213.454 19.0292 214.173 17.2982H208.579V15.0142H210.675C210.124 14.6416 209.07 13.9684 208.483 13.7159C210.028 12.1773 211.238 9.9173 211.885 7.6333L214.448 8.16223C214.232 8.87147 213.981 9.5206 213.741 10.1938H221.742V12.4778H217.478V14.0766C217.478 14.3891 217.478 14.6896 217.442 15.0022H222.509V17.2862H217.011L216.915 17.5627C218.185 18.1757 221.575 20.1833 222.413 20.7723L220.401 22.6476V22.6716ZM214.712 15.0262C214.747 14.6896 214.747 14.3771 214.747 14.0646V12.4898H212.58C212.053 13.4755 211.442 14.305 210.783 15.0262H214.712ZM212.855 23.3568H232.223V36.039H229.288V34.9932H215.694V36.0751H212.855V23.3688V23.3568ZM215.706 25.6408V28.045H229.3V25.6408H215.706ZM229.3 32.6731V30.2088H215.706V32.6731H229.3ZM234.822 10.1818V21.193H223.671V10.1818H234.822ZM231.983 12.7182H226.366V18.6686H231.983V12.7182Z" fill="white"/>
<path d="M251.135 9.62875C252.645 11.6964 254.25 14.4372 254.872 16.3245L252.309 17.4064C252.153 16.9135 251.938 16.3846 251.662 15.8076C243.721 16.4206 242.607 16.5769 241.865 16.8895C241.709 16.3004 241.278 14.942 240.906 14.1727C241.398 14.0765 241.865 13.6197 242.356 12.9706C242.883 12.3575 244.428 10.0375 245.386 7.69336L248.381 8.55887C247.386 10.4462 246.093 12.4417 244.823 14.0164L250.596 13.6438C250.01 12.5619 249.387 11.516 248.716 10.5664L251.123 9.64077L251.135 9.62875ZM253.423 33.0097C253.423 34.368 253.148 35.1013 252.249 35.5341C251.291 36.0029 249.938 36.0269 248.045 36.0269C247.889 35.2816 247.494 34.1396 247.087 33.4304C248.381 33.4905 249.65 33.4905 250.081 33.4665C250.477 33.4665 250.572 33.3463 250.572 32.9736V30.0405H244.883V36.051H242.2V18.6926H253.411V32.9976L253.423 33.0097ZM244.895 21.1088V23.2967H250.584V21.1088H244.895ZM250.572 27.8286V25.5206H244.883V27.8286H250.572ZM260.059 21.2892C256.849 21.2892 256.07 20.4597 256.07 17.6227V7.83761H258.885V12.6821C261.292 11.8526 263.736 10.8068 265.377 9.94129L267.233 12.0089C264.886 13.1509 261.736 14.1727 258.897 15.0021V17.5867C258.897 18.5724 259.113 18.7647 260.406 18.7647H264.634C265.748 18.7647 265.964 18.2719 266.083 15.3988C266.67 15.8556 267.844 16.2884 268.611 16.4807C268.275 20.2674 267.497 21.2892 264.898 21.2892H260.047H260.059ZM264.79 33.3463C265.964 33.3463 266.179 32.7572 266.335 29.4635C266.958 29.8962 268.096 30.353 268.862 30.5453C268.527 34.7407 267.748 35.8466 265.029 35.8466H260.155C256.909 35.8466 256.082 35.0172 256.082 32.1441V22.0946H258.921V26.6866C261.448 25.797 264.023 24.6791 265.652 23.5731L267.533 25.7009C265.185 27.0592 261.879 28.1652 258.909 29.0668V32.1562C258.909 33.178 259.16 33.3583 260.478 33.3583H264.778L264.79 33.3463Z" fill="white"/>
<path d="M299.908 22.0946H278.037V23.5491C278.037 27.2756 277.486 32.7692 274.731 36.4116C274.264 35.8226 272.971 34.7407 272.36 34.3801C274.767 31.1464 275.043 26.6746 275.043 23.489V19.2937H281.69C281.199 18.0916 280.181 16.3605 279.247 15.0623L281.75 14.0405C282.744 15.3027 283.918 17.0938 284.409 18.2959L282.217 19.2816H289.883C290.722 17.8632 291.74 15.7354 292.267 14.2208L295.453 15.2426C294.554 16.625 293.656 18.1156 292.83 19.2816H299.932V22.0946H299.908ZM299.13 13.9804H274.66V11.2396H285.751C285.32 10.35 284.733 9.26811 284.11 8.46271L287.009 7.69336C287.871 8.77525 288.769 10.2538 289.2 11.2396H299.118V13.9804H299.13Z" fill="white"/>
<path d="M332.404 31.7475V34.5845H305.25V31.7475H313.563V8.18628H316.497V31.7475H321.157V8.21032H324.091V31.7475H332.404ZM309.79 26.5063C309.083 23.6694 307.347 18.9211 305.837 15.3749L308.46 14.5454C310.006 18.0676 311.862 22.6837 312.665 25.4605L309.79 26.5063ZM331.973 15.8918C330.523 19.5582 328.511 23.8136 326.846 26.7227L324.463 25.4846C326.104 22.6716 328.2 18.1758 329.35 14.6296L331.973 15.8918Z" fill="white"/>
<path d="M343.148 18.296V36.0631H340.333V18.296H336.752V15.6755H340.333V7.8137H343.148V15.6755H346.334V18.296H343.148ZM365.019 28.9948H360.947V33.2863C360.947 34.5845 360.695 35.2577 359.737 35.6304C358.779 35.967 357.353 36.003 355.257 36.003C355.137 35.2938 354.766 34.3321 354.455 33.695C355.94 33.719 357.329 33.719 357.725 33.695C358.156 33.695 358.252 33.5748 358.252 33.2262V28.9948H349.975C351.46 29.9805 353.377 31.3749 354.419 32.2284L352.754 34.1758C351.736 33.2141 349.783 31.6755 348.31 30.5695L349.795 28.9948H345.376V26.6507H358.264V25.136H360.947V26.6507H365.019V28.9948ZM354.179 13.1751H346.118V10.9271H354.179V7.8137H356.778V10.9271H361.438C360.42 10.3982 359.15 9.82121 358.132 9.35239L359.27 7.71753C360.635 8.2705 362.516 9.07591 363.498 9.60483L362.695 10.9271H364.791V13.1751H356.754V14.6897H363.426V25.0519H360.827V23.2968H356.754V24.9677H354.155V23.2968H350.011V25.3283H347.544V14.6897H354.155V13.1751H354.179ZM350.035 16.6972V18.1758H354.179V16.6972H350.035ZM354.179 21.4696V19.991H350.035V21.4696H354.179ZM356.766 16.6972V18.1758H360.839V16.6972H356.766ZM360.851 21.4696V19.991H356.778V21.4696H360.851Z" fill="white"/>
<path d="M392.663 33.2862C393.777 33.2862 393.993 32.8895 394.113 30.2929C394.7 30.6896 395.837 31.1224 396.58 31.2786C396.269 34.8008 395.502 35.6543 392.903 35.6543H387.896C384.59 35.6543 383.788 34.9451 383.788 32.3846V29.2952C382.674 31.7354 379.56 34.2599 371.523 36.0871C371.152 35.474 370.313 34.4161 369.642 33.8031C380.578 31.6753 381.416 28.5258 381.416 26.2418V23.8737H384.387V26.338C384.387 26.8669 384.351 27.3838 384.231 27.9368H386.675V32.3726C386.675 33.1419 386.926 33.2621 388.28 33.2621H392.663V33.2862ZM373.882 18.2358H371.104V9.50855H373.882V18.2358ZM390.064 29.5236V22.5874H376.314V29.8001H373.439V20.051H393.059V29.5476L390.064 29.5236ZM380.302 19.2576H377.524V8.11411H380.302V19.2456V19.2576ZM386.603 13.2351C385.824 15.2065 384.878 16.9977 383.884 18.356C383.321 17.9834 382.123 17.2501 381.416 16.9015C383.237 14.6776 384.662 11.1915 385.465 7.74146L388.22 8.33049C388.004 9.1359 387.788 9.96535 387.513 10.7347H396.472V13.2351H386.615H386.603ZM390.124 13.6678C391.573 15.0502 393.059 16.9977 393.765 18.2959L391.142 19.4379C390.519 18.0795 389.01 16.072 387.681 14.6536L390.124 13.6678Z" fill="white"/>
<path d="M417.864 8.91958C417.589 9.35233 417.241 9.78509 416.906 10.2178C419.805 12.9346 424.715 16.012 429.483 17.6228C428.86 18.1758 427.902 19.3538 427.47 20.1232C425.77 19.438 424.069 18.5845 422.464 17.6228V19.7866H408.007V17.8392C406.438 18.8009 404.797 19.6544 403.06 20.4598C402.653 19.7265 401.67 18.4883 401.024 17.9354C406.929 15.5552 412.367 11.7686 415.205 7.72949L417.864 8.9316V8.91958ZM402.629 23.0202H427.937V25.8211H414.714C413.049 28.009 411.097 30.1367 409.097 31.9639L421.673 31.0984C420.655 29.9323 419.541 28.7903 418.487 27.8287L420.931 26.5665C423.649 28.9466 426.488 32.2163 427.878 34.4883L425.278 36.0631C424.883 35.3538 424.356 34.4883 423.673 33.6228C407.923 34.861 406.066 34.9451 404.737 35.474C404.545 34.8249 404.114 33.3463 403.743 32.5409C404.449 32.3846 405.168 31.8317 406.09 30.9662C406.893 30.293 408.905 28.2254 410.785 25.8211H402.629V23.0202ZM421.697 17.1299C419.23 15.5552 416.942 13.74 415.241 12.0691C413.48 13.9564 411.408 15.6153 409.121 17.1299H421.697Z" fill="white"/>
<path d="M147.876 54.7437L145.109 44.2974H146.523L148.104 51.1374C148.271 51.8587 148.427 52.5679 148.547 53.2771C148.81 52.1592 148.966 51.5221 149.014 51.3417L151.002 44.2854H152.667L154.164 49.5747C154.536 50.885 154.811 52.1111 154.979 53.2651C155.111 52.604 155.29 51.8466 155.494 50.9931L157.135 44.2854H158.524L155.662 54.7317H154.332L152.14 46.7738C151.961 46.1126 151.841 45.7039 151.817 45.5476C151.709 46.0284 151.601 46.4372 151.505 46.7738L149.29 54.7317H147.876V54.7437Z" fill="white"/>
<path d="M162.74 49.6589C162.74 47.9279 163.208 46.5695 164.13 45.5838C165.064 44.598 166.262 44.1172 167.723 44.1172C168.681 44.1172 169.556 44.3456 170.322 44.8024C171.101 45.2592 171.688 45.9083 172.095 46.7258C172.502 47.5552 172.706 48.4808 172.706 49.5267C172.706 50.5725 172.49 51.5342 172.071 52.3636C171.64 53.2051 171.041 53.8302 170.262 54.2629C169.484 54.6957 168.633 54.9121 167.735 54.9121C166.753 54.9121 165.879 54.6717 165.1 54.2028C164.322 53.734 163.747 53.0849 163.339 52.2554C162.944 51.438 162.74 50.5605 162.74 49.6469V49.6589ZM164.154 49.6829C164.154 50.9451 164.489 51.9309 165.172 52.6521C165.843 53.3734 166.693 53.734 167.711 53.734C168.729 53.734 169.604 53.3734 170.274 52.6401C170.945 51.9068 171.281 50.873 171.281 49.5267C171.281 48.6732 171.137 47.9279 170.849 47.3028C170.562 46.6656 170.143 46.1728 169.592 45.8242C169.041 45.4756 168.418 45.2952 167.735 45.2952C166.753 45.2952 165.915 45.6318 165.208 46.305C164.501 46.9782 164.154 48.0961 164.154 49.6709V49.6829Z" fill="white"/>
<path d="M177.856 54.7439V44.2976H182.48C183.414 44.2976 184.12 44.3938 184.6 44.5741C185.079 44.7664 185.474 45.091 185.761 45.5718C186.049 46.0527 186.193 46.5696 186.193 47.1466C186.193 47.8919 185.953 48.517 185.474 49.0219C184.995 49.5268 184.252 49.8513 183.258 49.9956C183.617 50.1759 183.905 50.3442 184.085 50.5125C184.492 50.8851 184.875 51.3419 185.234 51.8949L187.043 54.7439H185.306L183.929 52.5681C183.522 51.943 183.198 51.4621 182.935 51.1256C182.671 50.789 182.444 50.5606 182.24 50.4283C182.036 50.2961 181.821 50.1999 181.605 50.1519C181.449 50.1158 181.186 50.1038 180.839 50.1038H179.234V54.7439H177.856ZM179.234 48.9137H182.204C182.839 48.9137 183.33 48.8536 183.677 48.7213C184.037 48.5891 184.3 48.3848 184.492 48.0963C184.671 47.8078 184.767 47.4952 184.767 47.1586C184.767 46.6658 184.588 46.257 184.228 45.9445C183.869 45.6319 183.306 45.4636 182.527 45.4636H179.222V48.9137H179.234Z" fill="white"/>
<path d="M191.643 54.7439V44.2976H193.02V53.5057H198.158V54.7319H191.643V54.7439Z" fill="white"/>
<path d="M203.153 54.7439V44.2976H206.746C207.561 44.2976 208.172 44.3457 208.603 44.4419C209.202 44.5861 209.705 44.8265 210.136 45.1872C210.687 45.656 211.094 46.245 211.37 46.9663C211.645 47.6875 211.777 48.517 211.777 49.4546C211.777 50.248 211.681 50.9452 211.501 51.5583C211.322 52.1714 211.082 52.6763 210.795 53.073C210.507 53.4697 210.184 53.7942 209.849 54.0226C209.501 54.251 209.094 54.4313 208.603 54.5516C208.112 54.6718 207.561 54.7319 206.926 54.7319H203.165L203.153 54.7439ZM204.53 53.5177H206.758C207.441 53.5177 207.98 53.4576 208.375 53.3254C208.771 53.1932 209.082 53.0129 209.31 52.7845C209.633 52.4599 209.896 52.0151 210.076 51.4621C210.256 50.9092 210.352 50.236 210.352 49.4426C210.352 48.3487 210.172 47.5072 209.813 46.9182C209.453 46.3292 209.022 45.9445 208.507 45.7401C208.136 45.5959 207.537 45.5238 206.722 45.5238H204.53V53.5057V53.5177Z" fill="white"/>
<path d="M224.677 54.7439V44.2976H226.078V54.7439H224.677Z" fill="white"/>
<path d="M231.947 54.7439V44.2976H233.385L238.954 52.496V44.2976H240.296V54.7439H238.858L233.289 46.5335V54.7439H231.947Z" fill="white"/>
<path d="M248.776 54.7438V45.5357H245.278V44.3096H253.687V45.5357H250.177V54.7438H248.776Z" fill="white"/>
<path d="M258.562 54.7439V44.2976H266.227V45.5238H259.963V48.7213H265.832V49.9475H259.963V53.5057H266.479V54.7319H258.562V54.7439Z" fill="white"/>
<path d="M271.761 54.7439V44.2976H273.162V53.5057H278.385V54.7319H271.761V54.7439Z" fill="white"/>
<path d="M283.415 54.7439V44.2976H284.817V53.5057H290.039V54.7319H283.415V54.7439Z" fill="white"/>
<path d="M295.357 54.7439V44.2976H296.758V54.7439H295.357Z" fill="white"/>
<path d="M307.61 50.6566V49.4304H312.102V53.3012C311.407 53.8421 310.7 54.2509 309.97 54.5273C309.239 54.8038 308.484 54.9361 307.718 54.9361C306.676 54.9361 305.73 54.7197 304.879 54.2749C304.029 53.8301 303.382 53.205 302.951 52.3636C302.52 51.5341 302.304 50.6085 302.304 49.5747C302.304 48.5409 302.52 47.6153 302.951 46.7257C303.382 45.8482 304.005 45.187 304.819 44.7663C305.634 44.3335 306.568 44.1292 307.622 44.1292C308.389 44.1292 309.083 44.2494 309.706 44.5018C310.329 44.7422 310.808 45.0908 311.167 45.5236C311.515 45.9563 311.79 46.5334 311.97 47.2306L310.7 47.5672C310.545 47.0382 310.341 46.6175 310.101 46.317C309.862 46.0165 309.526 45.764 309.083 45.5837C308.64 45.4034 308.161 45.3072 307.622 45.3072C306.975 45.3072 306.424 45.4034 305.957 45.5957C305.49 45.7881 305.107 46.0405 304.831 46.353C304.544 46.6656 304.316 47.0142 304.16 47.3869C303.885 48.036 303.753 48.7332 303.753 49.4905C303.753 50.4162 303.921 51.1975 304.244 51.8226C304.568 52.4477 305.047 52.9165 305.67 53.2171C306.293 53.5176 306.951 53.6739 307.658 53.6739C308.269 53.6739 308.856 53.5536 309.443 53.3252C310.018 53.0968 310.461 52.8444 310.76 52.592V50.6446H307.646L307.61 50.6566Z" fill="white"/>
<path d="M317.6 54.7439V44.2976H325.265V45.5238H319.001V48.7213H324.87V49.9475H319.001V53.5057H325.517V54.7319H317.6V54.7439Z" fill="white"/>
<path d="M330.847 54.7439V44.2976H332.284L337.854 52.496V44.2976H339.195V54.7439H337.758L332.188 46.5335V54.7439H330.847Z" fill="white"/>
<path d="M352.538 51.0893L353.94 51.4379C353.64 52.5679 353.113 53.4334 352.347 54.0345C351.58 54.6355 350.646 54.924 349.544 54.924C348.442 54.924 347.472 54.6956 346.753 54.2388C346.035 53.782 345.496 53.1209 345.124 52.2434C344.753 51.3778 344.561 50.4402 344.561 49.4425C344.561 48.3485 344.777 47.4109 345.196 46.5935C345.615 45.7881 346.214 45.175 346.993 44.7542C347.771 44.3335 348.622 44.1292 349.568 44.1292C350.634 44.1292 351.52 44.3936 352.239 44.9225C352.958 45.4515 353.461 46.1968 353.748 47.1705L352.371 47.495C352.131 46.7377 351.772 46.1847 351.305 45.8361C350.838 45.4875 350.251 45.3192 349.532 45.3192C348.718 45.3192 348.035 45.5116 347.496 45.8962C346.957 46.2809 346.562 46.7978 346.346 47.447C346.118 48.0961 346.011 48.7693 346.011 49.4545C346.011 50.344 346.142 51.1134 346.406 51.7866C346.669 52.4477 347.077 52.9406 347.628 53.2772C348.179 53.6017 348.789 53.77 349.424 53.77C350.215 53.77 350.873 53.5416 351.424 53.0968C351.975 52.6521 352.335 51.9909 352.538 51.1134V51.0893Z" fill="white"/>
<path d="M359.114 54.7439V44.2976H366.78V45.5238H360.515V48.7213H366.384V49.9475H360.515V53.5057H367.031V54.7319H359.114V54.7439Z" fill="white"/>
<path d="M379.919 54.7439V44.2976H387.585V45.5238H381.321V48.7213H387.19V49.9475H381.321V53.5057H387.836V54.7319H379.919V54.7439Z" fill="white"/>
<path d="M392.1 54.7439L396.209 49.2984L392.591 44.2976H394.268L396.197 46.9783C396.592 47.5313 396.879 47.964 397.047 48.2646C397.287 47.8799 397.562 47.4832 397.886 47.0745L400.018 44.3096H401.539L397.814 49.2383L401.826 54.7559H400.089L397.418 51.0294C397.275 50.813 397.119 50.5846 396.951 50.3322C396.712 50.7168 396.544 50.9693 396.448 51.1135L393.789 54.7559H392.1V54.7439Z" fill="white"/>
<path d="M406.474 54.7439V44.2976H410.474C411.181 44.2976 411.72 44.3337 412.091 44.3938C412.606 44.4779 413.049 44.6462 413.397 44.8746C413.744 45.115 414.032 45.4516 414.247 45.8844C414.463 46.3171 414.571 46.786 414.571 47.3029C414.571 48.1924 414.283 48.9497 413.708 49.5628C413.133 50.1759 412.103 50.4884 410.594 50.4884H407.875V54.7319H406.474V54.7439ZM407.875 49.2743H410.618C411.528 49.2743 412.163 49.106 412.546 48.7815C412.93 48.4449 413.121 47.976 413.121 47.375C413.121 46.9422 413.013 46.5696 412.786 46.257C412.558 45.9445 412.271 45.7401 411.9 45.644C411.66 45.5839 411.229 45.5478 410.594 45.5478H407.875V49.2743Z" fill="white"/>
<path d="M419.338 49.6589C419.338 47.9279 419.805 46.5695 420.751 45.5838C421.697 44.598 422.919 44.1172 424.416 44.1172C425.398 44.1172 426.273 44.3456 427.063 44.8024C427.854 45.2592 428.453 45.9083 428.86 46.7258C429.267 47.5552 429.483 48.4808 429.483 49.5267C429.483 50.5725 429.267 51.5342 428.836 52.3636C428.405 53.2051 427.782 53.8302 426.991 54.2629C426.189 54.6957 425.338 54.9121 424.416 54.9121C423.422 54.9121 422.524 54.6717 421.745 54.2028C420.955 53.734 420.368 53.0849 419.96 52.2554C419.553 51.438 419.35 50.5605 419.35 49.6469L419.338 49.6589ZM420.787 49.6829C420.787 50.9451 421.134 51.9309 421.817 52.6521C422.5 53.3734 423.362 53.734 424.404 53.734C425.446 53.734 426.333 53.3734 427.015 52.6401C427.698 51.9068 428.033 50.873 428.033 49.5267C428.033 48.6732 427.89 47.9279 427.59 47.3028C427.303 46.6656 426.872 46.1728 426.309 45.8242C425.746 45.4756 425.111 45.2952 424.416 45.2952C423.422 45.2952 422.572 45.6318 421.853 46.305C421.134 46.9782 420.775 48.0961 420.775 49.6709L420.787 49.6829Z" fill="white"/>
<mask id="mask0_2079_155" style="mask-type:luminance" maskUnits="userSpaceOnUse" x="75" y="3" width="45" height="58">
<path d="M98.2888 49.5747C98.0133 50.897 98.8518 52.1833 100.181 52.4718C101.499 52.7483 102.804 51.9068 103.08 50.5845C103.355 49.2622 102.517 47.9759 101.187 47.6874C101.02 47.6514 100.852 47.6393 100.684 47.6393C99.5465 47.6393 98.5404 48.4327 98.2888 49.5747ZM83.0652 48.2284C81.6399 49.5507 81.556 51.7746 82.8856 53.1931C84.2031 54.6115 86.4429 54.6957 87.8683 53.3734C89.2936 52.0511 89.3775 49.8272 88.0479 48.4087C87.3532 47.6634 86.407 47.2907 85.4608 47.2907C84.5984 47.2907 83.748 47.6033 83.0652 48.2284ZM90.0362 43.2276C89.0421 44.1412 88.9942 45.6919 89.9045 46.6777C90.8267 47.6634 92.3719 47.7235 93.366 46.7979C94.3602 45.8843 94.4081 44.3336 93.4978 43.3478C93.0187 42.8309 92.3599 42.5665 91.7011 42.5665C91.1022 42.5665 90.5034 42.7828 90.0362 43.2156M101.092 41.4725C100.936 42.2058 101.415 42.9391 102.146 43.0954C102.888 43.2517 103.607 42.7708 103.763 42.0375C103.918 41.3043 103.451 40.571 102.709 40.4147C102.613 40.3907 102.517 40.3907 102.421 40.3907C101.786 40.3907 101.223 40.8354 101.08 41.4725M102.816 38.2028C103.044 38.2629 103.272 38.311 103.499 38.3471L104.194 33.4185L102.816 38.2028ZM101.427 37.5777L97.2947 43.7806L92.7072 50.6446L87.485 58.4703L89.3056 59.5041L91.1262 60.5379L95.2225 52.039L98.8039 44.61L102.038 37.9023L104.206 33.4064L101.427 37.5657V37.5777ZM100.301 36.5439L94.4799 41.2081C94.8273 41.6408 95.2106 42.0616 95.6178 42.4583C95.6178 42.4583 95.6418 42.4823 95.6537 42.4823L100.768 37.0608L104.206 33.4305L100.301 36.5559V36.5439ZM99.5465 35.2096L92.5994 37.8783L84.9098 40.8354L76.0703 44.2374L76.9566 46.1367L77.843 48.036L86.0956 43.456L93.3061 39.453L99.822 35.8347L104.194 33.4064L99.5345 35.1976L99.5465 35.2096ZM99.2231 33.719L91.8089 34.1638C91.8449 34.7408 91.9167 35.3058 92.0245 35.8828L99.3069 34.4042L104.194 33.4185L99.2231 33.719ZM86.9699 33.2261C85.6285 33.4064 84.6822 34.6326 84.8619 35.9669C85.0415 37.3013 86.2633 38.2389 87.6048 38.0706C88.9463 37.8903 89.8925 36.6641 89.7128 35.3298C89.5451 34.1037 88.5031 33.2021 87.2933 33.2021C87.1855 33.2021 87.0777 33.2021 86.9699 33.2261ZM99.247 32.8895L104.206 33.4185L99.3668 32.2043C99.3069 32.4327 99.271 32.6611 99.247 32.8895ZM94.444 31.7235C94.3122 32.4688 94.8153 33.178 95.5579 33.3103C96.3005 33.4425 97.0072 32.9496 97.139 32.2043C97.2707 31.459 96.7677 30.7498 96.025 30.6176C95.9412 30.6055 95.8693 30.5935 95.7855 30.5935C95.1387 30.5935 94.5518 31.0623 94.432 31.7235M100.565 29.9804C100.565 29.9804 100.481 30.0646 100.445 30.1127L104.194 33.4185L100.936 29.6318C100.804 29.74 100.684 29.8602 100.565 29.9804ZM104.206 33.4185L107.895 30.0405C107.823 29.9564 107.739 29.8722 107.655 29.7881C107.571 29.704 107.488 29.6318 107.392 29.5597L104.206 33.4185ZM103.044 28.574L104.194 33.4185L103.727 28.4658C103.499 28.4898 103.272 28.5259 103.044 28.574ZM83.6761 31.2066L91.8568 32.0841C91.9167 31.5071 92.0125 30.9421 92.1563 30.3771L84.1672 28.3696C83.9396 29.3073 83.7839 30.2449 83.6761 31.2066ZM97.2468 26.3982C96.7078 26.9271 96.6958 27.7926 97.2348 28.3336C97.7618 28.8745 98.6362 28.8745 99.1752 28.3456C99.7142 27.8167 99.7142 26.9511 99.1871 26.4102C98.9236 26.1337 98.5643 26.0015 98.217 26.0015C97.8696 26.0015 97.5223 26.1337 97.2587 26.3982M109.057 26.326C108.542 26.879 108.554 27.7445 109.105 28.2614C109.656 28.7783 110.518 28.7543 111.045 28.2133C111.56 27.6604 111.536 26.7949 110.997 26.278C110.734 26.0255 110.398 25.9053 110.051 25.9053C109.692 25.9053 109.332 26.0496 109.057 26.326ZM75.5433 28.4177C75.5073 28.61 75.4954 28.8024 75.4954 28.9947V29.0548C75.5073 30.7257 76.7051 32.1923 78.4059 32.4928C80.3224 32.8294 82.143 31.5552 82.4783 29.6318C82.8137 27.7205 81.5321 25.8933 79.6157 25.5567C79.4121 25.5206 79.2084 25.5086 79.0048 25.5086C77.3279 25.5086 75.8427 26.7107 75.5433 28.4177ZM102.541 23.7055C101.798 23.8257 101.295 24.5349 101.415 25.2802C101.547 26.0255 102.253 26.5304 102.996 26.3982C103.739 26.2659 104.242 25.5687 104.122 24.8234C104.002 24.1502 103.427 23.6814 102.768 23.6814C102.697 23.6814 102.613 23.6814 102.541 23.7055ZM89.1499 19.1735C88.9702 19.3538 88.8025 19.5462 88.6348 19.7385L94.8393 25.1961C94.9351 25.0879 95.0429 24.9677 95.1507 24.8595C95.4501 24.5469 95.7615 24.2584 96.0849 23.9819L90.707 17.719C90.168 18.1758 89.6529 18.6686 89.1619 19.1855M77.5914 19.426L76.6093 21.2772L85.2571 25.0759L92.815 28.3937L99.6303 31.3869L104.206 33.3944L99.9537 30.7618L93.6056 26.8429L86.5747 22.5034L78.5616 17.5507L77.5795 19.4019L77.5914 19.426ZM112.135 23.8136C112.363 23.994 112.578 24.1863 112.794 24.3907C113.009 24.595 113.213 24.7994 113.405 25.0157L119.501 19.438C119.178 19.0894 118.842 18.7408 118.483 18.4042C118.136 18.0676 117.764 17.755 117.393 17.4545L112.135 23.8257V23.8136ZM100.936 14.2569C99.6064 14.4853 98.708 15.7475 98.9356 17.0698C99.1632 18.4042 100.421 19.2937 101.75 19.0653C103.08 18.8369 103.978 17.5747 103.751 16.2524C103.547 15.0623 102.517 14.2209 101.343 14.2209C101.211 14.2209 101.068 14.2209 100.936 14.2569ZM105.116 21.0608L104.565 28.4538L104.194 33.4185L105.248 28.5499L106.829 21.2892L108.578 13.2472C107.631 13.0548 106.685 12.9226 105.727 12.8505L105.116 21.0488V21.0608ZM95.1746 14.8219C95.1746 14.8219 95.1147 14.846 95.0908 14.858C95.1147 14.846 95.1507 14.8339 95.1746 14.8219ZM95.5459 14.6536C95.5459 14.6536 95.4861 14.6777 95.4621 14.6897C95.4861 14.6777 95.522 14.6656 95.5459 14.6536ZM90.5513 6.65963L88.6828 7.60929L93.5457 15.6874L97.7977 22.7558L101.643 29.139L104.218 33.4185L102.265 28.8264L99.3548 21.9865L96.1329 14.4012L92.4318 5.69794L90.5632 6.64761L90.5513 6.65963ZM111.907 14.2449L108.829 21.8903L106.05 28.7904L104.194 33.4185L106.685 29.0909L110.398 22.6356L114.507 15.4831L119.202 7.32078L117.309 6.40718L115.417 5.49359L111.895 14.2569L111.907 14.2449ZM101.379 3.45001L99.3069 3.7866L97.2348 4.12319L99.4267 13.3433C100.361 13.1269 101.307 12.9707 102.265 12.8865L101.379 3.43799V3.45001Z" fill="white"/>
</mask>
<g mask="url(#mask0_2079_155)">
<mask id="mask1_2079_155" style="mask-type:luminance" maskUnits="userSpaceOnUse" x="75" y="3" width="45" height="58">
<path d="M119.477 3.4502H75.4832V60.5501H119.477V3.4502Z" fill="url(#paint0_radial_2079_155)"/>
</mask>
<g mask="url(#mask1_2079_155)">
<path d="M119.477 3.4502H75.4832V60.5501H119.477V3.4502Z" fill="url(#paint1_radial_2079_155)"/>
</g>
</g>
<path d="M100.397 34.5484L98.6 29.74H97.2705L99.7139 36.2794H99.7858H100.349H100.445H100.481H101.175L101.798 34.2359L101.079 32.3125L100.397 34.5484Z" fill="#3D3047"/>
<path d="M106.805 29.74H105.475L104.553 32.2043L104.529 32.2764L103.822 34.1758L103.116 32.2764L103.08 32.2043L102.169 29.74H100.84L101.798 32.3125L102.517 34.2359L103.271 36.2794H103.307H103.906H104.002H104.361L105.128 34.2359L105.835 32.3125L106.805 29.74Z" fill="#3D3047"/>
<path d="M115.321 31.9038H115.596L116.039 30.6536H114.027L113.572 31.9038H113.859L112.734 35.0292H112.446L112.003 36.2794H114.027L114.47 35.0292H114.195L115.321 31.9038Z" fill="#3D3047"/>
<path d="M116.842 30.6536L116.399 31.9038H120.22L120.675 30.6536H116.842Z" fill="#3D3047"/>
<path d="M115.189 34.0917H119.441L119.884 32.8416H115.644L115.189 34.0917Z" fill="#3D3047"/>
<path d="M114.818 36.2795H118.651L119.106 35.0293H115.273L114.818 36.2795Z" fill="#3D3047"/>
<path d="M110.793 32.8415H108.23C107.979 32.8415 107.847 32.6372 107.919 32.3967C107.919 32.3967 107.919 32.3967 107.919 32.3847V32.3607H107.931C108.038 32.1082 108.302 31.9159 108.554 31.9159H112.83L113.273 30.6777H108.997C108.05 30.6777 107.008 31.4471 106.661 32.3967C106.326 33.3464 106.817 34.1157 107.763 34.1157H110.326C110.578 34.1157 110.71 34.3201 110.638 34.5605C110.638 34.5605 110.638 34.5605 110.638 34.5725V34.5966H110.626C110.518 34.849 110.254 35.0414 110.003 35.0414H105.775L105.332 36.2795H109.56C110.506 36.2795 111.548 35.5102 111.895 34.5605C112.231 33.6109 111.74 32.8415 110.793 32.8415Z" fill="#3D3047"/>
<g style="mix-blend-mode:color-dodge" opacity="0.66">
<mask id="mask2_2079_155" style="mask-type:luminance" maskUnits="userSpaceOnUse" x="75" y="3" width="46" height="58">
<path d="M120.663 3.44995H75.4832V60.5499H120.663V3.44995Z" fill="white"/>
</mask>
<g mask="url(#mask2_2079_155)">
<mask id="mask3_2079_155" style="mask-type:luminance" maskUnits="userSpaceOnUse" x="75" y="3" width="45" height="58">
<path d="M117.321 6.39516L115.429 5.48156L111.907 14.2449L108.829 21.8903L106.05 28.7904L104.194 33.4185L107.883 30.0405C107.811 29.9564 107.727 29.8722 107.643 29.7881C107.559 29.704 107.475 29.6318 107.38 29.5597L104.194 33.4185L102.816 38.2028C103.044 38.2629 103.271 38.311 103.499 38.3471L104.194 33.4185L106.685 29.0909L110.398 22.6356L114.506 15.4831L119.202 7.32078L117.309 6.40718L117.321 6.39516ZM100.181 52.4718C98.8635 52.1953 98.0131 50.897 98.2886 49.5747C98.5641 48.2524 99.8577 47.4109 101.187 47.6874C102.505 47.9639 103.355 49.2622 103.08 50.5845C102.804 51.9068 101.511 52.7483 100.181 52.4718ZM102.145 43.0954C101.403 42.9391 100.936 42.2178 101.091 41.4725C101.247 40.7393 101.978 40.2584 102.708 40.4147C103.451 40.571 103.918 41.2922 103.762 42.0375C103.607 42.7708 102.876 43.2517 102.145 43.0954ZM82.8854 53.1931C81.5558 51.7746 81.6397 49.5507 83.065 48.2284C84.4904 46.9061 86.7182 46.9902 88.0477 48.4087C89.3653 49.8272 89.2934 52.0511 87.8681 53.3734C86.4427 54.6957 84.2149 54.6115 82.8854 53.1931ZM89.9162 46.6777C90.8385 47.6634 92.3836 47.7235 93.3778 46.7979C94.3719 45.8843 94.4198 44.3336 93.5095 43.3478C92.5873 42.3621 91.0421 42.302 90.048 43.2156C89.0539 44.1292 89.0059 45.6799 89.9162 46.6656M84.8617 35.9669C84.682 34.6326 85.6282 33.4064 86.9697 33.2261C88.3112 33.0458 89.533 33.9955 89.7126 35.3298C89.8923 36.6641 88.9461 37.8903 87.6046 38.0706C86.2631 38.2509 85.0413 37.3012 84.8617 35.9669ZM75.5431 28.4177C75.8784 26.5064 77.699 25.2321 79.6155 25.5567C81.5319 25.8813 82.8135 27.7205 82.4781 29.6318C82.1428 31.5432 80.3221 32.8294 78.4057 32.4928C76.4893 32.1562 75.2077 30.329 75.5431 28.4177ZM94.4438 31.7235C94.5755 30.9782 95.2822 30.4853 96.0248 30.6175C96.7675 30.7498 97.2705 31.459 97.1388 32.2043C97.007 32.9496 96.3003 33.4425 95.5577 33.3103C94.8151 33.178 94.312 32.4688 94.4438 31.7235ZM97.2466 26.3982C97.7856 25.8692 98.6479 25.8692 99.1869 26.4102C99.714 26.9511 99.714 27.8166 99.175 28.3456C98.636 28.8745 97.7736 28.8745 97.2346 28.3336C96.7076 27.7926 96.7076 26.9271 97.2466 26.3982ZM102.541 23.7055C103.283 23.5852 103.99 24.0781 104.122 24.8234C104.253 25.5687 103.75 26.278 102.996 26.3982C102.253 26.5184 101.547 26.0255 101.415 25.2802C101.283 24.5349 101.786 23.8257 102.541 23.7055ZM100.936 14.2569C102.265 14.0285 103.535 14.9301 103.75 16.2524C103.978 17.5867 103.08 18.8369 101.75 19.0653C100.421 19.2937 99.151 18.3922 98.9354 17.0698C98.7078 15.7355 99.6062 14.4853 100.936 14.2569ZM110.997 26.2659C111.548 26.7828 111.572 27.6484 111.045 28.2013C110.53 28.7543 109.655 28.7663 109.104 28.2494C108.553 27.7325 108.53 26.867 109.057 26.314C109.572 25.7611 110.446 25.749 110.997 26.2659ZM104.565 28.4538L105.116 21.0608L105.727 12.8625C106.685 12.9346 107.643 13.0668 108.577 13.2592L106.829 21.3012L105.248 28.562L104.194 33.4305L104.565 28.4658V28.4538ZM103.044 28.574C103.271 28.5259 103.499 28.4898 103.726 28.4658L104.194 33.4185L103.044 28.574ZM101.63 29.139L97.7975 22.7558L93.5455 15.6874L88.6825 7.60929L90.5511 6.65963L92.4196 5.70996L96.1207 14.4132L99.3427 21.9985L102.253 28.8384L104.206 33.4305L101.63 29.151V29.139ZM100.445 30.1127C100.445 30.1127 100.528 30.0165 100.564 29.9804C100.684 29.8602 100.804 29.74 100.936 29.6318L104.194 33.4185L100.445 30.1127ZM99.6301 31.4109L92.8148 28.4177L85.2569 25.0999L76.6091 21.3012L77.5912 19.45L78.5734 17.5988L86.5865 22.5514L93.6173 26.891L99.9535 30.8099L104.206 33.4425L99.6301 31.435V31.4109ZM99.2468 32.8895C99.2708 32.6611 99.3067 32.4327 99.3666 32.2043L104.206 33.4185L99.2468 32.8895ZM99.3187 34.4042L92.0363 35.8828C91.9285 35.3178 91.8566 34.7408 91.8207 34.1638L99.2348 33.719L104.206 33.4185L99.3187 34.4042ZM99.8337 35.8467L93.3179 39.465L86.1074 43.468L77.8548 48.0481L76.9684 46.1487L76.0821 44.2494L84.9216 40.8475L92.6112 37.8903L99.5583 35.2096L104.218 33.4185L99.8457 35.8467H99.8337ZM100.768 37.0608L95.6535 42.4823C95.6535 42.4823 95.6296 42.4583 95.6176 42.4583C95.1984 42.0616 94.8151 41.6529 94.4678 41.2081L100.289 36.5439L104.194 33.4185L100.756 37.0488L100.768 37.0608ZM102.038 37.9143L98.8037 44.6221L95.2223 52.0511L91.126 60.5499L89.3054 59.5161L87.4848 58.4823L92.707 50.6566L97.2945 43.7926L101.427 37.5898L104.206 33.4305L102.038 37.9263V37.9143ZM83.6759 31.2066L91.8566 32.0841C91.9165 31.5071 92.0123 30.9421 92.1441 30.3771L84.155 28.3696C83.9274 29.3073 83.7717 30.2449 83.6639 31.2066M88.6466 19.7265L94.851 25.184C94.9469 25.0759 95.0546 24.9556 95.1624 24.8475C95.4619 24.5349 95.7733 24.2464 96.0967 23.9699L90.7187 17.707C90.1797 18.1638 89.6647 18.6566 89.1736 19.1735C88.994 19.3538 88.8263 19.5462 88.6586 19.7385M95.5457 14.6536C95.5457 14.6536 95.4858 14.6777 95.4619 14.6897C95.4858 14.6777 95.5218 14.6656 95.5457 14.6536ZM95.1744 14.8219C95.1744 14.8219 95.1145 14.846 95.0906 14.858C95.1145 14.846 95.1505 14.8339 95.1744 14.8219ZM117.393 17.4425C117.764 17.743 118.124 18.0676 118.483 18.3922C118.83 18.7287 119.166 19.0653 119.489 19.426L113.392 25.0037C113.201 24.7873 112.997 24.583 112.782 24.3786C112.566 24.1743 112.35 23.9819 112.135 23.8016L117.393 17.4305V17.4425ZM99.3067 3.7866L97.2346 4.12319L99.4265 13.3433C100.361 13.1269 101.307 12.9707 102.265 12.8865L101.379 3.43799L99.3067 3.77458V3.7866Z" fill="white"/>
</mask>
<g mask="url(#mask3_2079_155)">
<mask id="mask4_2079_155" style="mask-type:luminance" maskUnits="userSpaceOnUse" x="75" y="3" width="45" height="58">
<path d="M119.489 3.44995H75.2075V60.5499H119.489V3.44995Z" fill="url(#paint2_radial_2079_155)"/>
</mask>
<g mask="url(#mask4_2079_155)">
<path d="M119.489 3.44995H75.2075V60.5499H119.489V3.44995Z" fill="url(#paint3_radial_2079_155)"/>
</g>
</g>
<path d="M100.397 34.5484L98.6 29.74H97.2705L99.7139 36.2794H99.7858H100.349H100.445H100.481H101.175L101.798 34.2359L101.079 32.3125L100.397 34.5484Z" fill="#3D3047"/>
<path d="M106.805 29.74H105.475L104.553 32.2043L104.529 32.2764L103.822 34.1758L103.116 32.2764L103.08 32.2043L102.169 29.74H100.84L101.798 32.3125L102.517 34.2359L103.271 36.2794H103.307H103.906H104.002H104.361L105.128 34.2359L105.835 32.3125L106.805 29.74Z" fill="#3D3047"/>
<path d="M115.321 31.9038H115.596L116.039 30.6536H114.027L113.572 31.9038H113.859L112.734 35.0292H112.446L112.003 36.2794H114.027L114.47 35.0292H114.195L115.321 31.9038Z" fill="#3D3047"/>
<path d="M116.842 30.6536L116.399 31.9038H120.22L120.675 30.6536H116.842Z" fill="#3D3047"/>
<path d="M115.189 34.0917H119.441L119.884 32.8416H115.644L115.189 34.0917Z" fill="#3D3047"/>
<path d="M114.818 36.2795H118.65L119.106 35.0293H115.273L114.818 36.2795Z" fill="#3D3047"/>
<path d="M110.793 32.8415H108.23C107.978 32.8415 107.847 32.6372 107.918 32.3967C107.918 32.3967 107.918 32.3967 107.918 32.3847V32.3607H107.93C108.038 32.1082 108.302 31.9159 108.553 31.9159H112.829L113.272 30.6777H108.996C108.05 30.6777 107.008 31.4471 106.661 32.3967C106.325 33.3464 106.817 34.1157 107.763 34.1157H110.326C110.578 34.1157 110.709 34.3201 110.637 34.5605C110.637 34.5605 110.637 34.5605 110.637 34.5725V34.5966H110.625C110.518 34.849 110.254 35.0414 110.003 35.0414H105.774L105.331 36.2795H109.559C110.506 36.2795 111.548 35.5102 111.895 34.5605C112.23 33.6109 111.739 32.8415 110.793 32.8415Z" fill="#3D3047"/>
</g>
</g>
<path d="M7.09078 6.99622L3.95264 5.81815L5.13842 2.68066L8.27657 3.85873L7.09078 6.99622Z" fill="#3B913A"/>
<path d="M24.3985 2.16382C24.3985 2.16382 45.0719 6.69575 36.9151 28.3697L38.6998 36.5079L34.867 36.58C34.867 36.58 34.304 37.7341 34.8909 37.9625C34.8909 37.9625 36.448 38.7919 34.1244 39.6334C34.1244 39.6334 33.801 40.4628 34.1363 40.9918C34.1363 40.9918 34.3879 41.9294 32.8547 42.4944C32.8547 42.4944 33.4177 46.8941 30.4951 47.0263C30.4951 47.0263 27.4528 47.3509 23.5721 43.0594L18.3139 43.0954L16.649 44.9106L13.2713 43.8768L15.3075 38.9121L7.49805 35.3659L9.92951 30.0045L13.0557 31.1946L24.3985 2.16382Z" fill="url(#paint4_linear_2079_155)"/>
<path d="M24.3985 2.16382L22.1946 7.80168L30.1837 10.8069L28.3392 15.6755L33.6932 17.695L30.04 27.3599L20.362 23.7175L21.6197 20.3997L17.8348 18.9812L13.0557 31.2066L9.92951 30.0166L7.49805 35.3779L15.3075 38.9241L13.2713 43.8888L16.649 44.9226L18.3139 43.1075L23.5721 43.0714C26.9378 46.7979 29.6806 47.0383 30.3394 47.0383C30.4352 47.0383 30.4951 47.0383 30.4951 47.0383C33.4177 46.9061 32.8547 42.5064 32.8547 42.5064C34.3998 41.9414 34.1363 41.0038 34.1363 41.0038C33.789 40.4749 34.1244 39.6454 34.1244 39.6454C36.448 38.7919 34.8909 37.9745 34.8909 37.9745C34.304 37.7461 34.867 36.5921 34.867 36.5921L38.6998 36.5199L36.9151 28.3817C45.0719 6.69575 24.3985 2.16382 24.3985 2.16382Z" fill="url(#paint5_linear_2079_155)"/>
<path d="M17.0802 7.17656L11.8699 5.20511L13.8342 0L19.0565 1.95943L17.0802 7.17656Z" fill="#87B828"/>
<path d="M10.5283 21.0127L3.22192 18.2599L5.97678 10.9631L13.2831 13.716L10.5283 21.0127Z" fill="#0C78BD"/>
<path d="M4.47964 20.2433L0 18.5604L1.68885 14.1006L6.15651 15.7835L4.47964 20.2433Z" fill="#1B94D3"/>
<path d="M8.037 29.9805L3.56934 28.2855L5.25818 23.8257L9.72585 25.5086L8.037 29.9805Z" fill="#652E83"/>
<path d="M12.289 42.8912L8.9353 41.629L10.2049 38.2871L13.5587 39.5493L12.289 42.8912Z" fill="#AD2852"/>
<path d="M7.49805 35.3538L9.92951 29.9925L13.0557 31.1946L13.978 28.8264L21.8952 32.3606L16.637 44.8985L13.2713 43.8647L15.3075 38.9L7.49805 35.3538Z" fill="#AD2852"/>
<path d="M28.3271 35.0654L34.6513 37.7341C34.6513 37.7341 36.7235 38.9001 34.1123 39.6214C34.1123 39.6214 33.6811 40.4148 34.1243 40.9798C34.1243 40.9798 34.4118 42.1338 32.8427 42.4824C32.8427 42.4824 33.7171 47.4952 29.7405 46.9663C29.7405 46.9663 27.1413 46.7138 24.7817 44.2735L28.3271 35.0654Z" fill="url(#paint6_linear_2079_155)"/>
<path d="M30.04 27.3478L20.3621 23.7054L24.0033 14.0405L33.6932 17.6829L30.04 27.3478Z" fill="#DC5410"/>
<path d="M18.9486 6.57544L14.7085 17.779L17.8347 18.9571L22.1945 7.78956L18.9486 6.57544Z" fill="#A5CA5E"/>
<path d="M22.1946 7.78955L17.8347 18.9571L21.6077 20.3876L24.0032 14.0405L28.3391 15.6754L30.1837 10.8068L22.1946 7.78955Z" fill="url(#paint7_linear_2079_155)"/>
<path d="M24.0032 14.0405L21.6077 20.3876L25.9436 22.0105L28.3391 15.6754L24.0032 14.0405Z" fill="#9C9F22"/>
<path d="M2.31177 51.2577H4.28808L6.61174 57.4485C6.76745 57.8572 6.88723 58.2179 6.99503 58.5184C7.10283 58.8309 7.18667 59.1195 7.27051 59.3839C7.46216 58.7348 7.66578 58.0977 7.88137 57.4846C7.90533 57.4125 7.92928 57.3524 7.94126 57.3283L10.4087 50.7769L13.0078 57.4605C13.1276 57.7851 13.2474 58.1097 13.3552 58.4343C13.463 58.7588 13.5708 59.0834 13.6666 59.42C13.7265 59.1675 13.7983 58.8911 13.8942 58.5905C13.99 58.29 14.1097 57.9294 14.2655 57.5207L16.5771 51.2817H18.5654L13.8103 64.024L11.0075 57.0278C10.8878 56.7152 10.768 56.4147 10.6722 56.1262C10.5763 55.8377 10.4805 55.5612 10.4087 55.3088C10.3128 55.6333 10.217 55.9459 10.1212 56.2344C10.0254 56.5229 9.92955 56.7994 9.82175 57.0639L7.06689 64.024L2.32375 51.2817L2.31177 51.2577Z" fill="url(#paint8_linear_2079_155)"/>
<path d="M23.2967 51.2578H21.2964V64.0001H23.2967V51.2578Z" fill="url(#paint9_linear_2079_155)"/>
<path d="M36.4001 54.5155C35.8371 54.0466 35.2502 53.686 34.6274 53.4456C34.0046 53.2052 33.3578 53.0849 32.6751 53.0849C31.3455 53.0849 30.2675 53.5057 29.4411 54.3592C28.6146 55.2127 28.1954 56.3066 28.1954 57.6529C28.1954 58.9993 28.6026 60.0331 29.4052 60.8866C30.2077 61.7401 31.2377 62.1608 32.4595 62.1608C33.1781 62.1608 33.8608 62.0286 34.5076 61.7762C35.1544 61.5237 35.7773 61.139 36.3761 60.6221V62.846C35.8491 63.2307 35.2742 63.5072 34.6514 63.6995C34.0285 63.8919 33.3458 63.976 32.6271 63.976C31.7049 63.976 30.8425 63.8197 30.0519 63.5192C29.2614 63.2187 28.5787 62.7739 27.9798 62.1849C27.3929 61.6079 26.9378 60.9227 26.6144 60.1413C26.3029 59.3599 26.1353 58.5185 26.1353 57.6289C26.1353 56.7393 26.291 55.9099 26.6144 55.1285C26.9258 54.3472 27.3929 53.662 27.9918 53.0729C28.5907 52.4719 29.2854 52.0271 30.0639 51.7266C30.8425 51.426 31.6809 51.2698 32.5912 51.2698C33.2979 51.2698 33.9806 51.378 34.6274 51.5823C35.2742 51.7867 35.897 52.0992 36.5079 52.52L36.4001 54.5034V54.5155Z" fill="url(#paint10_linear_2079_155)"/>
<path d="M29.1418 57.1722C30.5192 57.9897 32.0044 58.17 33.5735 57.9175C32.0284 58.3022 30.4473 58.0618 29.034 57.3165C28.7705 57.1963 28.6147 57.0881 28.6147 57.0881C28.6147 57.3165 28.7585 57.617 28.7585 57.617C28.9022 57.9175 29.0819 58.17 29.2735 58.3863C29.2735 58.3863 29.3813 58.5186 29.5849 58.6869C29.7406 58.8191 29.9083 58.9273 30.088 59.0235C30.1479 59.0475 30.2078 59.0836 30.2677 59.1076C30.6749 59.2879 31.1061 59.3721 31.5373 59.3721C33.0105 59.3721 34.0406 58.7109 34.4598 58.4344C34.9389 58.0978 35.3941 57.6891 35.8133 57.1963C33.7532 57.6531 31.4534 55.5013 29.1537 57.1722H29.1418Z" fill="url(#paint11_linear_2079_155)"/>
<path d="M58.1274 7.14038V56.8594" stroke="white" stroke-width="0.46" stroke-miterlimit="10" stroke-linecap="round"/>
</g>
<defs>
<radialGradient id="paint0_radial_2079_155" cx="0" cy="0" r="1" gradientUnits="userSpaceOnUse" gradientTransform="translate(114.191 32.6789) scale(29.9523 29.9076)">
<stop/>
<stop offset="0.06" stop-color="#030303"/>
<stop offset="0.1" stop-color="#0D0D0D"/>
<stop offset="0.14" stop-color="#1E1E1E"/>
<stop offset="0.18" stop-color="#353535"/>
<stop offset="0.22" stop-color="#545454"/>
<stop offset="0.26" stop-color="#7A7A7A"/>
<stop offset="0.29" stop-color="#A7A7A7"/>
<stop offset="0.33" stop-color="#DADADA"/>
<stop offset="0.35" stop-color="white"/>
<stop offset="0.6" stop-color="white"/>
<stop offset="0.8" stop-color="white"/>
<stop offset="1" stop-color="white"/>
</radialGradient>
<radialGradient id="paint1_radial_2079_155" cx="0" cy="0" r="1" gradientUnits="userSpaceOnUse" gradientTransform="translate(114.179 32.7029) scale(29.9523 29.9076)">
<stop stop-color="white"/>
<stop offset="0.06" stop-color="#FDFCFB"/>
<stop offset="0.12" stop-color="#F9F5F1"/>
<stop offset="0.16" stop-color="#F2EAE0"/>
<stop offset="0.21" stop-color="#E7D9C9"/>
<stop offset="0.25" stop-color="#DAC4AA"/>
<stop offset="0.29" stop-color="#CAAA84"/>
<stop offset="0.33" stop-color="#B78C58"/>
<stop offset="0.35" stop-color="#B08046"/>
<stop offset="0.6" stop-color="#761F51"/>
<stop offset="0.8" stop-color="#432356"/>
<stop offset="1" stop-color="#12264C"/>
</radialGradient>
<radialGradient id="paint2_radial_2079_155" cx="0" cy="0" r="1" gradientUnits="userSpaceOnUse" gradientTransform="translate(114.19 32.6786) scale(29.9523 29.9076)">
<stop/>
<stop offset="0.06" stop-color="#030303"/>
<stop offset="0.1" stop-color="#0D0D0D"/>
<stop offset="0.14" stop-color="#1E1E1E"/>
<stop offset="0.18" stop-color="#353535"/>
<stop offset="0.22" stop-color="#545454"/>
<stop offset="0.26" stop-color="#7A7A7A"/>
<stop offset="0.29" stop-color="#A7A7A7"/>
<stop offset="0.33" stop-color="#DADADA"/>
<stop offset="0.35" stop-color="white"/>
<stop offset="0.6" stop-color="white"/>
<stop offset="0.8" stop-color="white"/>
<stop offset="1" stop-color="white"/>
</radialGradient>
<radialGradient id="paint3_radial_2079_155" cx="0" cy="0" r="1" gradientUnits="userSpaceOnUse" gradientTransform="translate(114.178 32.7027) scale(29.9523 29.9076)">
<stop stop-color="white"/>
<stop offset="0.06" stop-color="#FDFCFB"/>
<stop offset="0.12" stop-color="#F9F5F1"/>
<stop offset="0.16" stop-color="#F2EAE0"/>
<stop offset="0.21" stop-color="#E7D9C9"/>
<stop offset="0.25" stop-color="#DAC4AA"/>
<stop offset="0.29" stop-color="#CAAA84"/>
<stop offset="0.33" stop-color="#B78C58"/>
<stop offset="0.35" stop-color="#B08046"/>
<stop offset="0.6" stop-color="#761F51"/>
<stop offset="0.8" stop-color="#432356"/>
<stop offset="1" stop-color="#12264C"/>
</radialGradient>
<linearGradient id="paint4_linear_2079_155" x1="22.8933" y1="4.96051" x2="22.8933" y2="49.2501" gradientUnits="userSpaceOnUse">
<stop stop-color="#228CC2"/>
<stop offset="0.7" stop-color="#DEAB40"/>
<stop offset="1" stop-color="#E3AA38"/>
</linearGradient>
<linearGradient id="paint5_linear_2079_155" x1="25.8071" y1="-4.19271" x2="19.7859" y2="36.7816" gradientUnits="userSpaceOnUse">
<stop stop-color="#0C78BD"/>
<stop offset="0.11" stop-color="#51908C"/>
<stop offset="0.24" stop-color="#95A75C"/>
<stop offset="0.34" stop-color="#C7B83A"/>
<stop offset="0.42" stop-color="#E5C324"/>
<stop offset="0.46" stop-color="#F1C71D"/>
<stop offset="1" stop-color="#DC5410"/>
</linearGradient>
<linearGradient id="paint6_linear_2079_155" x1="24.7248" y1="31.3218" x2="20.5024" y2="43.0913" gradientUnits="userSpaceOnUse">
<stop stop-color="#EBA415"/>
<stop offset="0.16" stop-color="#E79113"/>
<stop offset="0.49" stop-color="#E17211"/>
<stop offset="0.77" stop-color="#DE5E10"/>
<stop offset="0.96" stop-color="#DD5810"/>
<stop offset="1" stop-color="#DC5410"/>
</linearGradient>
<linearGradient id="paint7_linear_2079_155" x1="23.951" y1="-4.46557" x2="17.9298" y2="36.5088" gradientUnits="userSpaceOnUse">
<stop stop-color="#68A84D"/>
<stop offset="0.1" stop-color="#77AD42"/>
<stop offset="0.33" stop-color="#96B72D"/>
<stop offset="0.46" stop-color="#A2BC25"/>
<stop offset="1" stop-color="#9C9F22"/>
</linearGradient>
<linearGradient id="paint8_linear_2079_155" x1="-3.06639" y1="96.4191" x2="44.8455" y2="96.1691" gradientUnits="userSpaceOnUse">
<stop stop-color="#E95504"/>
<stop offset="0.01" stop-color="#EC6903"/>
<stop offset="0.03" stop-color="#F18802"/>
<stop offset="0.05" stop-color="#F5A201"/>
<stop offset="0.08" stop-color="#F8B600"/>
<stop offset="0.11" stop-color="#FAC400"/>
<stop offset="0.14" stop-color="#FBCC00"/>
<stop offset="0.2" stop-color="#FCCF00"/>
<stop offset="0.38" stop-color="#B72756"/>
<stop offset="0.61" stop-color="#69308D"/>
<stop offset="0.76" stop-color="#3C51A7"/>
<stop offset="0.92" stop-color="#1073C1"/>
<stop offset="1" stop-color="#0080CB"/>
</linearGradient>
<linearGradient id="paint9_linear_2079_155" x1="-23.2176" y1="89.0092" x2="24.7546" y2="88.7589" gradientUnits="userSpaceOnUse">
<stop stop-color="#E95504"/>
<stop offset="0.01" stop-color="#EC6903"/>
<stop offset="0.03" stop-color="#F18802"/>
<stop offset="0.05" stop-color="#F5A201"/>
<stop offset="0.08" stop-color="#F8B600"/>
<stop offset="0.11" stop-color="#FAC400"/>
<stop offset="0.14" stop-color="#FBCC00"/>
<stop offset="0.2" stop-color="#FCCF00"/>
<stop offset="0.38" stop-color="#B72756"/>
<stop offset="0.61" stop-color="#69308D"/>
<stop offset="0.76" stop-color="#3C51A7"/>
<stop offset="0.92" stop-color="#1073C1"/>
<stop offset="1" stop-color="#0080CB"/>
</linearGradient>
<linearGradient id="paint10_linear_2079_155" x1="-4.1206" y1="95.0876" x2="43.1306" y2="94.841" gradientUnits="userSpaceOnUse">
<stop stop-color="#E95504"/>
<stop offset="0.01" stop-color="#EC6903"/>
<stop offset="0.03" stop-color="#F18802"/>
<stop offset="0.05" stop-color="#F5A201"/>
<stop offset="0.08" stop-color="#F8B600"/>
<stop offset="0.11" stop-color="#FAC400"/>
<stop offset="0.14" stop-color="#FBCC00"/>
<stop offset="0.2" stop-color="#FCCF00"/>
<stop offset="0.38" stop-color="#B72756"/>
<stop offset="0.61" stop-color="#69308D"/>
<stop offset="0.76" stop-color="#3C51A7"/>
<stop offset="0.92" stop-color="#1073C1"/>
<stop offset="1" stop-color="#0080CB"/>
</linearGradient>
<linearGradient id="paint11_linear_2079_155" x1="27.2613" y1="57.9536" x2="35.8013" y2="57.9536" gradientUnits="userSpaceOnUse">
<stop stop-color="#8DC21F"/>
<stop offset="1" stop-color="#3A983A"/>
</linearGradient>
<clipPath id="clip0_2079_155">
<rect width="493" height="64" fill="white"/>
</clipPath>
</defs>
</svg>
